<svg width="156" height="51" viewBox="0 0 156 51" fill="none" xmlns="http://www.w3.org/2000/svg">
<path fill-rule="evenodd" clip-rule="evenodd" d="M12.6597 8.51698C13.1022 9.2031 14.9415 15.3471 15.2114 16.5642L10.1739 16.5207L12.6597 8.51698ZM29.1876 1.11866C26.7489 1.82962 26.7584 4.35679 26.7584 7.04228C26.7584 11.3888 26.5795 19.6346 26.7584 23.4968C26.9749 28.0451 32.094 28.5107 33.3871 24.9466C33.927 23.4813 33.6853 14.8349 33.6853 12.9411C33.6853 10.2959 33.814 7.33411 33.6853 4.72623C33.5566 2.35119 31.9182 0.330089 29.1939 1.12487L29.1876 1.11866ZM38.0856 8.2003C34.2126 8.22514 34.1278 12.5468 38.0856 12.8386V21.7054C38.0856 23.1398 37.913 24.4158 38.5376 25.5769C39.793 27.8991 43.393 27.6787 44.3911 25.6762C45.3327 23.8135 44.4256 16.3624 44.8525 12.8386C46.9491 12.8386 49.165 12.7672 49.1053 10.4698C49.0457 8.17236 46.9868 8.2003 44.8117 8.2003C44.8117 6.76597 44.6485 5.93393 46.1927 5.79112C47.536 5.66694 48.578 6.10158 49.1838 5.06153C50.2854 3.16771 48.7318 1.45396 46.0263 1.06588C43.6347 0.724376 41.2902 1.2087 39.7491 2.30773C37.9978 3.54958 38.0856 6.18851 38.0856 8.20652V8.2003ZM58.7283 12.6337C61.5091 12.05 62.253 14.5772 62.4036 16.9026C62.5637 19.3863 62.2907 22.3698 59.7829 22.5902C56.886 22.8448 55.9758 20.7275 55.8471 18.1444C55.709 15.3999 56.3681 13.1304 58.7283 12.6337ZM63.2354 26.294C63.747 26.648 63.7564 26.8808 64.3684 27.1727C65.1557 27.5469 66.058 27.6091 66.8901 27.3464C67.7223 27.0838 68.4214 26.5162 68.8441 25.7601L68.9822 9.59118C68.0814 7.44899 64.8141 6.69456 63.4237 8.74672C62.1274 8.48283 61.4966 7.33722 58.1069 7.61353C56.4046 7.72862 54.7584 8.26219 53.3173 9.16585C51.0701 10.6468 49.143 13.4502 49.0112 17.4707C48.8762 21.5378 50.8033 24.4468 53.1761 25.9184C54.6256 26.8053 56.2716 27.3296 57.9719 27.4459C61.3302 27.6942 61.641 26.8249 63.2354 26.2972V26.294ZM8.55437 22.2922L16.8654 22.2518C17.2138 23.7203 17.807 25.847 18.7235 26.5455C20.1641 27.6477 22.2733 27.3714 23.4691 26.2195C24.9819 24.7635 24.6461 23.4036 23.9305 21.3887C23.3718 19.8116 22.8382 18.3059 22.2733 16.7318C21.1591 13.6272 20.0762 10.5412 18.9903 7.51108C17.5936 3.57441 17.6501 1.12798 12.6691 1.15281C10.5882 1.15281 8.99378 1.56573 8.19343 2.8914C7.39308 4.21708 2.6161 18.3121 1.50189 21.3546C0.823951 23.2174 0.535199 24.8225 1.83145 26.1264C3.3474 27.6477 6.7685 28.0606 7.81052 24.7138C8.06475 23.9004 8.30642 23.1367 8.55437 22.2953V22.2922Z" fill="#005AAB"/>
<path fill-rule="evenodd" clip-rule="evenodd" d="M0.892578 42.1245L0.917688 44.8318H125.995C132.922 44.8318 139.855 44.8659 146.779 44.8318C149.528 44.8318 152.428 43.5899 153.888 41.6247C155.987 38.7777 155.994 37.6166 155.994 33.4161C154.453 33.177 23.5628 33.354 10.0479 33.354C5.09833 33.354 0.892578 37.2316 0.892578 42.1245Z" fill="#ED1C24"/>
<path fill-rule="evenodd" clip-rule="evenodd" d="M144.419 3.6334C144.808 4.58341 145.021 4.25432 144.977 5.80664C144.932 6.66663 144.82 7.52189 144.642 8.36484C144.353 9.86127 143.913 11.3825 143.562 12.9007C142.184 18.8523 139.274 28.5076 148.471 27.3527C151.553 26.9677 155.131 25.223 153.141 21.8669C151.816 22.6213 147.739 25.4403 147.736 21.159C147.736 18.5139 148.725 15.9588 149.095 13.4502C152.005 13.4502 155.802 14.0711 156 9.70293C153.999 10.1277 151.95 10.2926 149.905 10.1935C150.172 8.52318 151.719 4.88456 150.79 3.62409C149.594 2.00347 146.123 3.22048 144.425 3.62409L144.419 3.6334ZM80.2998 13.413C80.5666 11.8607 81.7185 8.99508 80.2998 7.98919C78.9973 7.0578 75.9528 7.71909 74.6503 8.43936C75.4412 9.07891 75.278 10.1438 75.1085 11.4012C74.6588 14.4176 74.03 17.4053 73.2254 20.3487C72.8613 21.7054 71.6561 24.8721 72.3372 26.1202C73.2599 27.806 76.0627 27.3248 77.9051 26.7411C77.7324 25.344 76.9949 25.2509 78.4857 22.2767C79.1448 20.9603 79.7694 19.7216 80.4317 18.4456C81.0985 17.2132 81.8319 16.0172 82.6287 14.8628C83.0164 14.292 83.4355 13.7427 83.8841 13.2174C84.1352 12.9069 84.3361 12.8107 84.5872 12.5468C84.9513 12.1649 84.901 12.05 85.5476 11.9848C85.7767 13.6272 84.0128 20.1407 83.5452 22.0718C83.1874 23.5651 82.3556 25.7042 83.6111 26.7753C84.6876 27.6911 87.4684 27.3124 88.5858 26.6449C87.8953 24.8597 88.4288 23.7607 89.2135 22.1866C89.8726 20.8392 90.469 19.6408 91.1846 18.3742C92.0163 16.9088 94.8881 12.0469 96.2063 11.9879C96.4355 12.6089 94.4989 20.9262 94.2322 22.3605C93.8587 24.3754 93.9654 26.3592 95.6445 27.064C97.6627 27.9147 99.3042 26.6914 100.666 26.1605C100.459 25.6917 100.698 26.1606 100.422 25.757C100.199 25.431 100.356 25.757 100.142 25.3409C99.1598 23.4285 100.089 20.0444 100.509 18.0389C100.905 16.145 102.154 11.3298 101.919 9.59428C101.489 6.42135 97.9106 7.08264 95.5221 8.71257C94.4268 9.46078 93.7331 10.2649 92.9422 11.0969C91.9441 12.137 91.2034 13.3385 90.6541 13.9128C90.8016 12.2736 91.6177 10.4977 90.9146 8.84916C90.2869 7.36826 88.5921 7.01123 86.6995 7.6632C84.3832 8.45488 83.0995 10.0817 81.6557 11.7147C81.3889 12.0252 81.2759 12.1773 80.984 12.5623L80.2998 13.413ZM117.138 12.851C116.749 13.3447 114.73 17.2472 113.324 19.1658C112.697 20.0103 108.777 25.9494 109.131 20.6064C109.298 18.1506 110.732 10.0848 114.275 10.6995C115.415 10.8982 116.824 12.1214 117.138 12.851ZM115.343 20.8889C115.277 23.0777 114.818 25.7166 116.488 26.738C118.346 27.8743 120.76 27.2254 122.003 26.1388C121.469 24.276 121.13 24.5089 121.249 21.4322C121.372 18.3264 121.913 15.2507 122.856 12.286L124.322 8.42694C123.381 7.79049 120.826 7.36826 119.473 7.73771C118.917 7.88984 118.516 8.35864 117.998 8.2655C117.844 8.23756 116.962 7.7967 116.62 7.69114C111.011 5.94324 106.278 10.9106 104.153 16.1295C102.735 19.616 101.881 26.7039 106.247 27.3745C108.651 27.7439 110.738 26.353 111.79 25.2012C112.656 24.245 112.417 24.661 113.635 23.1894C114.112 22.612 114.865 21.277 115.333 20.8982L115.343 20.8889ZM132.843 13.562C132.875 11.8544 134.413 9.31487 132.843 8.08233C131.356 6.9181 128.744 7.87742 127.159 8.32449C127.994 10.4139 127.558 11.8079 127.018 14.3475C126.591 16.3437 126.105 18.3679 125.584 20.327C125.229 21.6651 123.974 25.1236 124.718 26.2661C125.763 27.8743 128.732 27.3279 130.518 26.7194C130.311 25.105 129.651 25.5614 130.992 22.3946C131.539 21.1017 132.161 19.8412 132.856 18.6194C133.484 17.4986 135.483 14.3878 136.738 13.9625C137.755 13.6117 138.182 14.2729 138.622 14.8287C140.907 13.4223 143.876 6.69456 139.519 7.40242C136.883 7.83085 134.272 11.6682 132.85 13.5713L132.843 13.562Z" fill="#ED1C24"/>
<path fill-rule="evenodd" clip-rule="evenodd" d="M0.892578 50.0724H143.034C146.581 50.0724 149.045 50.3828 151.76 48.697C153.232 47.7874 155.768 45.1484 155.777 42.7113C155.288 43.0404 155.036 43.5216 154.566 43.9345C150.172 47.7874 146.342 46.9678 140.128 46.9678H0.892578V50.0724Z" fill="#FFD503"/>
</svg>
