<svg width="172" height="53" viewBox="0 0 172 53" fill="none" xmlns="http://www.w3.org/2000/svg">
<path d="M20.2079 33.0608C18.498 31.9455 16.2079 31.2225 12.5193 30.2788C11.3773 29.9847 10.1864 29.329 9.81999 28.4957C8.83677 29.4884 8.65967 31.7188 8.83677 33.0179C9.03219 34.5253 10.7849 37.007 13.417 37.1051C14.972 37.0955 16.5209 36.9085 18.0338 36.5474C19.7193 36.1798 22.382 37.2399 22.8033 39.3049H23.585C23.5749 38.0661 23.2617 36.8489 22.6728 35.7601C22.0839 34.6713 21.2375 33.7444 20.2079 33.0608Z" fill="#005BAB"/>
<path d="M22.3086 46.413C22.2598 46.8113 22.1438 47.136 21.6552 47.0993C21.1666 47.0625 21.1789 46.5846 21.2155 46.272L21.5758 43.4166L20.7392 43.3185L20.3727 46.2414C20.3117 47.1789 20.5559 47.6508 21.5941 47.7795C22.6323 47.9081 22.9682 47.5037 23.1453 46.5539L23.4995 43.6249L22.6689 43.5269L22.3086 46.413Z" fill="#005BAB"/>
<path d="M18.3453 42.9754L16.9102 42.6506L16.0063 46.8174L16.8552 47.0012L17.2277 45.2181L17.4537 45.261C17.626 45.2839 17.7932 45.3357 17.9484 45.4142C18.1987 45.5429 18.1193 45.8921 18.0705 46.1434C17.9834 46.4942 17.9383 46.8542 17.9361 47.2157L18.8094 47.4424V47.3199C18.6445 47.1544 18.8827 46.1372 18.9133 45.9657C18.9926 45.5796 18.956 45.3529 18.5163 45.1936C19.0476 45.2242 19.2613 44.7524 19.3285 44.3112C19.4446 43.533 19.1881 43.1592 18.3453 42.9754ZM18.5407 44.2009C18.4736 44.6176 18.2842 44.8137 17.93 44.7524L17.3621 44.5931L17.6003 43.4717L18.211 43.5943C18.5224 43.6433 18.6079 43.8149 18.5407 44.1764V44.2009Z" fill="#005BAB"/>
<path d="M14.3758 41.9337C13.1544 41.6028 12.8735 42.3503 12.5437 43.3737L12.3849 43.9864C12.0857 45.071 11.9574 45.886 13.2032 46.223C13.3673 46.2641 13.5402 46.2512 13.6964 46.1861C13.8526 46.121 13.9837 46.0072 14.0704 45.8615L13.9422 46.3272L14.5162 46.4804L15.1269 44.2867L13.9055 43.8884L13.7223 44.5441L14.2536 44.685C14.0948 45.2978 13.8323 45.7328 13.4048 45.6164C12.8796 45.4755 12.9956 44.9117 13.0933 44.5747L13.4048 43.4411C13.4842 43.1286 13.6307 42.4055 14.2231 42.5648C14.8155 42.7241 14.675 43.0612 14.5712 43.4778L15.3346 43.6862C15.3833 43.5205 15.414 43.3499 15.4262 43.1776C15.4262 42.3994 15.0231 42.1175 14.3758 41.9337Z" fill="#005BAB"/>
<path d="M169.132 4.68967H148.899L141.657 17.6865H144.71L129.186 47.9817H144.588L147.69 40.561H157.461L157.797 47.9817H171.025L169.132 4.68967ZM151.929 30.6587L156.698 19.1632L157.101 30.6587H151.929Z" fill="#005BAB"/>
<path d="M25.1605 31.0387C25.2094 22.8153 19.2673 17.0124 15.5238 17.4659C12.9222 17.6926 10.742 18.7588 9.57562 21.8288C8.48859 24.6843 9.45959 28.4834 13.0627 29.3719C16.9162 30.334 19.1696 31.1306 20.788 32.252C21.9075 33.058 22.8225 34.1168 23.459 35.3431C24.0955 36.5693 24.4357 37.9285 24.4521 39.311H25.1972C25.1911 37.2399 25.2155 31.7188 25.1605 31.0387Z" fill="#005BAB"/>
<path d="M25.9054 30.9468C25.9909 34.5315 25.9848 38.061 26.0032 39.3172H26.9864C26.9864 38.0059 26.9314 34.2496 26.9864 30.8365C27.0536 26.3326 28.0978 23.4833 29.9544 21.0322C31.1757 19.3839 34.6384 17.0737 34.6445 12.7599C34.6445 7.67389 30.8704 4.72035 26.4551 4.67133C22.0336 4.72035 18.2412 7.67389 18.2534 12.7599C18.2534 17.0492 21.7161 19.3839 22.9436 21.0322C24.7879 23.5017 25.7955 26.4429 25.9054 30.9468Z" fill="#005BAB"/>
<path d="M32.0981 45.3161C32.2689 45.2237 32.4053 45.0782 32.4868 44.9014C32.5683 44.7247 32.5904 44.5262 32.55 44.3357C32.5356 44.0811 32.4392 43.8381 32.2752 43.6433C32.152 43.5385 32.0062 43.464 31.8493 43.4257C31.6924 43.3874 31.5288 43.3864 31.3714 43.4227L29.9851 43.631L30.5592 47.8224L31.9332 47.6324C32.489 47.5589 32.8187 47.3812 32.9103 46.8297C32.9319 46.626 32.9319 46.4206 32.9103 46.2169C32.8187 45.6532 32.5439 45.3161 32.0981 45.3161ZM30.8767 44.0906L31.237 44.0355C31.6279 43.9558 31.7256 44.1458 31.7867 44.4521C31.8048 44.5325 31.8065 44.6157 31.7918 44.6968C31.7771 44.7779 31.7463 44.8551 31.7012 44.924C31.6034 45.0955 31.3531 45.1201 31.1699 45.1446H31.0172L30.8767 44.0906ZM31.921 46.9706C31.7773 47.039 31.6218 47.0785 31.463 47.087H31.292L31.1027 45.8247L31.4019 45.7818C31.8844 45.7083 32.0126 45.8799 32.0737 46.3395C32.092 46.5294 32.1042 46.8113 31.9088 46.94L31.921 46.9706Z" fill="#005BAB"/>
<path d="M36.5805 45.3468L35.7988 45.5C35.8355 45.7757 36.0248 46.4436 35.5973 46.5294C35.066 46.6397 34.9316 46.0821 34.8645 45.739L34.6324 44.587C34.5713 44.2683 34.3698 43.5024 34.9805 43.4288C35.3225 43.3921 35.4385 43.8578 35.524 44.1213L36.2813 43.9681C36.2642 43.8617 36.2376 43.7571 36.2019 43.6556C36.1779 43.5063 36.1223 43.3639 36.0389 43.2379C35.9556 43.1119 35.8463 43.0053 35.7185 42.9252C35.5906 42.8451 35.4472 42.7934 35.2978 42.7735C35.1484 42.7536 34.9965 42.7661 34.8523 42.8099C33.6309 43.055 33.6919 43.8516 33.869 44.9117L33.9851 45.5245C34.211 46.6275 34.4553 47.4179 35.7133 47.1728C36.5805 47.0013 36.721 46.364 36.6049 45.598C36.5988 45.5122 36.5866 45.4203 36.5805 45.3468Z" fill="#005BAB"/>
<path d="M47.8907 5.48612L47.7136 5.40646C41.0323 2.20742 33.7414 0.493479 26.3393 0.381771C19.0202 0.351587 11.7839 1.93512 5.14205 5.02042L4.96495 5.1062L4.87334 5.28391C1.69094 11.7401 0.0239096 18.8417 0 26.0444C0.0332314 33.3436 1.703 40.5416 4.88556 47.1052L4.97105 47.2829L5.14815 47.3687C12.3055 50.7083 19.4812 52.3934 26.4492 52.3934C33.791 52.4036 41.0485 50.8234 47.7258 47.7609L47.909 47.6751L47.9945 47.4974C51.1916 41.0548 52.8794 33.9644 52.9289 26.7675C52.8583 19.4576 51.1489 12.2573 47.9273 5.70059L47.8907 5.48612ZM47.1151 46.8111C40.638 49.7537 33.6081 51.2706 26.498 51.2598C19.7804 51.2598 12.8124 49.636 5.85656 46.4251C2.78866 40.0687 1.16983 33.1067 1.11757 26.0444C1.1271 19.0753 2.71192 12.1992 5.75274 5.93344C12.1889 2.97007 19.1907 1.44785 26.2721 1.4725C33.447 1.58278 40.5148 3.2356 46.999 6.31948C50.0984 12.6808 51.7425 19.6564 51.8113 26.7369C51.7711 33.7004 50.1571 40.5641 47.0907 46.8111H47.1151Z" fill="#005BAB"/>
<path d="M37.5088 42.3075L37.7714 46.6458L38.5775 46.4069L38.4676 45.3161L39.3531 45.0465L39.86 46.0086L40.66 45.7696L38.547 41.9766L37.5088 42.3075ZM38.3882 44.6176L38.1806 42.6751L39.0355 44.4276L38.3882 44.6176Z" fill="#005BAB"/>
<path d="M40.3546 30.2788C36.6904 31.2164 34.3759 31.9456 32.666 33.0608C31.6363 33.7453 30.7902 34.6734 30.2023 35.7634C29.6145 36.8533 29.3028 38.0717 29.2949 39.311H30.0644C30.4919 37.246 33.1606 36.1859 34.84 36.5536C36.355 36.9145 37.9059 37.1016 39.463 37.1112C42.089 37.0131 43.8356 34.5314 44.0432 33.024C44.2142 31.725 44.0432 29.4945 43.0539 28.5018C42.6936 29.329 41.5027 29.9847 40.3546 30.2788Z" fill="#005BAB"/>
<path d="M32.0859 32.252C33.7226 31.1306 35.9638 30.334 39.8234 29.3719C43.4143 28.4834 44.3914 24.6843 43.3105 21.8288C42.1379 18.765 39.9578 17.6926 37.3623 17.4659C33.6065 17.0124 27.6706 22.8153 27.7133 31.0387C27.6645 31.7188 27.6828 37.2399 27.6828 39.3049H28.5378C28.5375 37.9326 28.8584 36.5795 29.4747 35.3544C30.091 34.1294 30.9854 33.0667 32.0859 32.252Z" fill="#005BAB"/>
<path d="M26.2048 43.7229H24.5987L24.4949 47.9133H25.3193L25.356 46.1612H25.8873C26.1993 46.179 26.5085 46.0929 26.7667 45.9161C26.9047 45.7904 27.0134 45.6358 27.0852 45.4632C27.157 45.2907 27.19 45.1044 27.1819 44.9175C27.1819 44.3417 26.9621 43.7291 26.2048 43.7229ZM25.7834 45.5608H25.3621L25.3987 44.3356H25.7346C26.1804 44.3356 26.3453 44.4152 26.3453 44.8992C26.3453 45.3831 26.1315 45.5363 25.7834 45.5363V45.5608Z" fill="#005BAB"/>
<path d="M93.0819 25.4809C97.5583 23.2259 101.632 18.8569 101.632 13.918C101.632 8.56237 97.7721 4.85512 90.9323 4.81223C85.375 4.77547 72.184 4.81223 72.184 4.81223L65.79 17.76H69.0328L61.5029 47.9817H81.7108C90.975 47.9817 98.1018 41.3515 98.1018 34.2618C98.1018 31.3267 97.7049 27.1721 93.0819 25.4809ZM86.2483 33.8084C85.6376 36.1185 83.0849 37.0376 81.2284 37.0376H76.4955L78.3276 29.9418H83.2131C83.694 29.915 84.1742 30.0046 84.6133 30.203C85.0525 30.4015 85.4376 30.7029 85.7364 31.0819C86.0351 31.461 86.2387 31.9065 86.3299 32.381C86.4211 32.8555 86.3973 33.345 86.2605 33.8084H86.2483ZM88.4956 18.961C87.8849 21.694 85.375 22.0249 83.9582 22.0249H80.294L81.7597 15.8972H85.7109C86.8467 15.9094 89.1918 15.9891 88.5078 18.961H88.4956Z" fill="#005BAB"/>
<path d="M123.47 37.3195C115.293 37.3195 113.296 32.0498 113.296 28.4712C113.296 23.6487 116.679 16.8286 125.87 16.8286C129.323 16.8434 132.658 18.0877 135.281 20.3398L141.889 8.36632L132.545 3.93601L131.275 5.05125C130.285 4.50867 129.172 4.23412 128.044 4.25465C110.151 4.25465 99.7022 18.9978 99.696 31.1306C99.696 40.3221 105.253 49.2808 119.849 48.8396C122.46 48.7924 125.043 48.2907 127.483 47.3567L134.042 33.8758C130.922 36.0211 127.251 37.2169 123.47 37.3195Z" fill="#005BAB"/>
</svg>
