<svg width="150" height="45" viewBox="0 0 150 45" fill="none" xmlns="http://www.w3.org/2000/svg">
<path fill-rule="evenodd" clip-rule="evenodd" d="M0 15.6176L12.6825 31.5153L0 41.9813V15.6176Z" fill="#F15A23"/>
<path fill-rule="evenodd" clip-rule="evenodd" d="M5.11279 41.9812L14.6081 34.0325L21.1818 41.9812H5.11279Z" fill="#F15A23"/>
<path fill-rule="evenodd" clip-rule="evenodd" d="M0 7.0726L3.32003 11.2457L16.8658 28.137L21.2483 24.6262C21.2483 24.6262 17.5961 20.3207 15.1394 15.5514C10.3585 6.21147 13.7449 0.382324 13.7449 0.382324H0V7.0726Z" fill="#F15A23"/>
<path fill-rule="evenodd" clip-rule="evenodd" d="M18.7915 30.7868L23.2404 27.0773C23.2404 27.0773 27.4901 32.7076 32.4701 34.0324C38.9774 35.7547 41.8327 31.5154 41.8327 31.5154V41.9814H27.6229L30.8102 39.1993C30.8102 39.1993 29.1501 40.3253 25.0332 37.477C22.6428 35.821 18.7915 30.7868 18.7915 30.7868Z" fill="#F15A23"/>
<path fill-rule="evenodd" clip-rule="evenodd" d="M19.2564 0.382324C19.2564 0.382324 17.7955 2.30329 18.8579 7.0726C19.9203 12.1731 24.3028 17.5386 24.2363 17.4061C24.2363 17.4061 24.5019 12.0406 27.6227 8.92733C34.3292 2.23706 41.8989 6.21147 41.8989 6.21147V0.382324H19.2564Z" fill="#F15A23"/>
<path fill-rule="evenodd" clip-rule="evenodd" d="M41.8991 13.2992C41.8991 13.2992 37.6495 9.65599 33.9973 9.65599C29.2829 9.65599 26.6934 13.6966 26.6934 16.6775C26.6934 20.983 28.7517 23.3677 30.8101 25.4212C33.7982 28.4019 37.3839 31.5816 41.8991 28.9981C41.8991 24.0964 41.8991 13.2992 41.8991 13.2992Z" fill="#F15A23"/>
<path fill-rule="evenodd" clip-rule="evenodd" d="M90.1058 0.845978H100.066C100.066 0.845978 108.897 14.2265 113.28 19.7244C117.596 25.2225 122.31 31.5153 122.31 31.5153C122.31 31.5153 122.31 13.2992 122.31 3.82679C122.31 2.63447 119.189 0.845978 119.189 0.845978H130.677C130.677 0.845978 126.892 2.3695 126.892 3.82679C126.892 15.6176 126.892 44.1009 126.892 44.1009C126.892 44.1009 123.24 42.1137 119.123 37.3445C114.475 31.9789 98.074 10.3846 98.074 10.3846C98.074 10.3846 98.074 30.7867 98.074 38.4042C98.074 39.8615 101.195 41.9813 101.195 41.9813H90.0396C90.0396 41.9813 93.0939 39.7953 93.0939 38.4042C93.0939 28.2032 93.0939 13.2992 93.0939 3.82679C93.1603 2.56822 90.1058 0.845978 90.1058 0.845978Z" fill="#005E6A"/>
<path fill-rule="evenodd" clip-rule="evenodd" d="M137.184 0.845978H150C150 0.845978 146.547 2.50198 146.547 3.82679C146.547 13.2992 146.547 28.9981 146.547 38.4042C146.547 39.9278 150 41.9813 150 41.9813H137.184C137.184 41.9813 140.371 39.7953 140.371 38.4042C140.371 27.1435 140.371 13.2992 140.371 3.82679C140.371 2.50198 137.184 0.845978 137.184 0.845978Z" fill="#005E6A"/>
<path fill-rule="evenodd" clip-rule="evenodd" d="M52.3896 0.845978C52.3896 0.845978 55.7097 2.50198 55.7097 3.82679C55.7097 13.2992 55.7097 27.0771 55.7097 38.4042C55.7097 39.8615 52.3896 41.9813 52.3896 41.9813C52.3896 41.9813 68.9898 41.9813 71.3802 41.9813C72.5755 41.9813 85.8556 39.7953 85.8556 29.5943C85.8556 19.3933 75.4971 18.3997 75.4971 18.3997C75.4971 18.3997 81.8051 16.6774 81.8051 9.65594C81.8051 2.10454 72.5755 0.845978 71.3802 0.845978C68.9235 0.845978 52.3896 0.845978 52.3896 0.845978ZM62.4827 17.7372V4.88663C62.4827 4.88663 67.9938 4.88663 70.1851 4.88663C71.3802 4.88663 75.4971 6.27768 75.4971 11.3782C75.4971 15.6176 71.3139 17.7372 70.1851 17.7372C67.5291 17.7372 62.4827 17.7372 62.4827 17.7372ZM62.4827 21.1155C62.4827 21.1155 70.1851 21.1155 71.3802 21.1155C72.5755 21.1155 79.5476 22.9041 79.5476 28.9981C79.5476 35.1585 72.5755 37.3445 71.3802 37.3445C70.1851 37.3445 62.4827 37.3445 62.4827 37.3445V21.1155Z" fill="#005E6A"/>
</svg>
