<svg width="187" height="45" viewBox="0 0 187 45" fill="none" xmlns="http://www.w3.org/2000/svg">
<path d="M50.5688 11.4282H60.6404C64.7195 11.4282 67.7602 13.2159 67.7602 16.9825C67.7602 19.7439 66.3492 21.2814 63.9018 22.0974V22.1604C66.8202 22.7576 68.3257 24.3265 68.3257 26.9934C68.3257 32.2343 63.7127 33.3322 59.7912 33.3322H50.5688V11.4282ZM56.4037 20.0907H58.0354C59.9488 20.0907 61.9272 19.6197 61.9272 17.767C61.9272 15.7604 60.0434 15.5712 58.0966 15.5712H56.4037V20.0907ZM56.4037 29.191H58.1299C60.264 29.191 62.4908 28.8757 62.4908 26.6484C62.4908 24.2635 60.201 24.0446 58.1911 24.0446H56.4037V29.191Z" fill="#00529C"/>
<path d="M75.9857 11.4282H83.1389L91.5788 33.3322H85.1784L83.5468 28.6569H75.3275L73.6013 33.3322H67.6719L75.9857 11.4282ZM79.5623 15.9477H79.4993L76.6755 24.5157H82.1673L79.5623 15.9477Z" fill="#00529C"/>
<path d="M92.3901 11.4282H99.8251L107.23 26.3035H107.292L107.199 11.4282H112.533V33.3322H105.284L97.6299 18.3623H97.5687L97.7541 33.3322H92.3901V11.4282Z" fill="#00529C"/>
<path d="M114.514 11.4282H120.349V20.3726H120.412L126.999 11.4282H134.026L125.933 21.6263L134.655 33.3322H127.218L120.412 23.3844H120.349V33.3322H114.514V11.4282Z" fill="#00529C"/>
<path d="M141.891 11.4282H151.962C156.039 11.4282 159.084 13.216 159.084 16.9825C159.084 19.744 157.673 21.2814 155.225 22.0974V22.1604C158.144 22.7576 159.647 24.3265 159.647 26.9934C159.647 32.2343 155.036 33.3322 151.115 33.3322H141.891V11.4282ZM147.726 20.0908H149.357C151.272 20.0908 153.247 19.6197 153.247 17.767C153.247 15.7604 151.367 15.5712 149.42 15.5712H147.726V20.0908ZM147.726 29.191H149.452C151.584 29.191 153.813 28.8758 153.813 26.6484C153.813 24.2635 151.523 24.0447 149.515 24.0447H147.726V29.191Z" fill="#00529C"/>
<path d="M160.942 11.4282H171.358C175.248 11.4282 178.417 13.1863 178.417 16.9529C178.417 19.8701 177.037 21.8155 174.214 22.4739V22.5369C176.094 23.0395 176.22 24.7031 177.319 27.3699L179.452 33.3323H173.366L172.111 29.3802C170.919 25.6136 170.164 24.6697 168.001 24.6697H166.777V33.3323H160.942V11.4282ZM166.777 20.5285H168.314C170.198 20.5285 172.582 20.4654 172.582 17.9859C172.582 15.9477 170.543 15.5713 168.314 15.5713H166.777V20.5285Z" fill="#00529C"/>
<path d="M181.061 11.4276H186.896V33.3317H181.061V11.4276Z" fill="#00529C"/>
<path d="M37.2529 0.38232H6.71375C3.00552 0.38232 0 3.46273 0 7.26269V7.33502V37.5141C0 41.2769 2.94989 44.3369 6.60992 44.3926H37.2362C40.9444 44.3926 43.9518 41.314 43.9518 37.5141L43.9648 7.26269C43.9648 3.46273 40.9611 0.38232 37.2529 0.38232ZM10.3423 40.8671L8.67726 40.8856C6.65998 40.8856 5.02465 39.2277 5.02465 37.1821L5.01538 36.8909V8.95404L5.0265 7.44814C5.10252 5.46934 6.60621 3.87814 8.57342 3.87814H11.9609C15.0313 3.87814 17.5195 6.54869 17.5195 9.69585C17.5195 11.2537 16.9095 12.6668 15.9213 13.6943L7.27925 22.4663L15.3799 30.7171C16.4237 31.7946 17.0541 33.2078 17.0541 34.7563C17.0541 38.1316 14.0505 40.8671 10.3423 40.8671ZM35.2449 40.8393L20.1431 40.8337C20.1431 40.8337 21.8878 37.0597 21.8878 34.723C21.8878 31.8725 20.9367 29.3281 19.446 27.6442L14.2804 22.3772L19.5516 16.9286C21.1221 15.4542 22.1641 12.8356 22.1641 9.85164C22.1641 7.48895 21.5114 5.39702 20.4602 3.87814H24.1183C27.1887 3.87814 29.6788 6.54869 29.6788 9.69585C29.6788 11.2537 29.0688 12.6668 28.0806 13.6943L19.6036 22.3754L37.2102 40.333C36.6521 40.6835 35.9494 40.8393 35.2449 40.8393ZM38.9327 35.233L26.3155 22.3698L32.3246 16.261C33.5465 14.731 34.3234 12.4276 34.3234 9.85164C34.3234 7.47411 33.6615 5.3284 32.6009 3.80952L35.2894 3.89112C37.3066 3.89112 38.942 5.54909 38.942 7.59465L38.9327 35.233Z" fill="#00529C"/>
</svg>
