<svg width="150" height="45" viewBox="0 0 150 45" fill="none" xmlns="http://www.w3.org/2000/svg">
<path d="M104.556 26.4357C104.556 24.5129 104.556 22.5902 104.556 20.6729C104.523 18.3149 105.387 16.0324 106.971 14.2864C108.556 12.5405 110.744 11.4612 113.094 11.2667C115.444 11.0722 117.779 11.777 119.63 13.2387C121.48 14.7003 122.706 16.8099 123.061 19.1411C123.145 19.7139 123.186 20.2922 123.185 20.871C123.185 24.8557 123.185 28.8457 123.185 32.8304C123.185 33.2642 123.067 33.366 122.649 33.366C121.435 33.3374 120.222 33.3374 119.008 33.366C118.596 33.366 118.473 33.2535 118.473 32.8304C118.473 28.8065 118.473 24.7843 118.473 20.7639C118.498 20.1424 118.398 19.5222 118.179 18.9401C117.959 18.358 117.625 17.826 117.196 17.3757C116.767 16.9254 116.252 16.5661 115.681 16.319C115.111 16.0719 114.496 15.9422 113.874 15.9375C113.252 15.9328 112.636 16.0533 112.062 16.2918C111.487 16.5303 110.967 16.8819 110.531 17.3257C110.095 17.7695 109.753 18.2964 109.525 18.8751C109.297 19.4538 109.188 20.0725 109.204 20.6943C109.204 22.9384 109.204 25.1878 109.204 27.4318C109.204 29.226 109.204 31.0202 109.204 32.8143C109.204 33.2535 109.07 33.3499 108.669 33.3499C107.458 33.3213 106.245 33.3213 105.027 33.3499C104.61 33.3499 104.519 33.2267 104.524 32.8143C104.567 30.7095 104.556 28.5726 104.556 26.4357Z" fill="#108DE8"/>
<path d="M40.5223 12.0662C39.1836 9.40981 37.3035 7.06326 35.0032 5.17766C32.7029 3.29205 30.0333 1.90918 27.1662 1.11809C24.2992 0.327007 21.2983 0.145236 18.3568 0.584482C15.4153 1.02373 12.5984 2.07426 10.0874 3.66843C0.272586 9.92392 -2.92404 23.1151 2.92306 33.2535C5.17172 37.2131 8.62332 40.3529 12.7769 42.2174C16.9306 44.0818 21.5701 44.5739 26.0223 43.6222C30.8546 42.5122 35.1655 39.7908 38.2463 35.9052C41.3272 32.0197 42.9946 27.2013 42.9746 22.2421C42.9726 18.704 42.1322 15.2167 40.5223 12.0662ZM34.0219 22.3117V28.203C34.0219 28.9528 33.9309 29.0064 33.3044 28.6315C30.761 27.1265 28.0731 27.1265 25.3209 27.8603C22.9435 28.4976 20.6732 29.467 18.3172 30.1632C16.1004 30.822 13.8623 31.1433 11.5866 30.4257C10.9168 30.2081 10.2723 29.919 9.66435 29.5634C9.44348 29.4548 9.25844 29.285 9.13125 29.0742C9.00405 28.8634 8.94005 28.6205 8.94685 28.3744C8.94685 28.0102 8.94685 27.6514 8.94685 27.3033C8.94685 24.0434 8.94685 20.7818 8.94685 17.5184C8.94685 17.122 8.94685 16.7203 8.98433 16.324C8.98433 15.8259 9.15032 15.7456 9.58404 16.0348C10.9065 16.9419 12.4628 17.4478 14.0657 17.4916C15.9154 17.4543 17.7413 17.0673 19.447 16.3508C21.6905 15.5314 23.8805 14.5781 26.1937 13.9675C27.3628 13.6148 28.5945 13.5202 29.8038 13.6904C31.013 13.8605 32.1709 14.2913 33.1973 14.953C33.4574 15.1011 33.6709 15.3191 33.8137 15.5821C33.9566 15.8452 34.0231 16.143 34.0059 16.4419C34.0059 18.3967 34.0219 20.3569 34.0219 22.3117Z" fill="#108DE8"/>
<path d="M149.925 20.6675C149.922 19.706 149.772 18.7506 149.48 17.8344C148.11 13.5498 143.912 10.7541 139.623 11.2896C137.441 11.5286 135.414 12.5297 133.898 14.1168C132.381 15.7039 131.474 17.7752 131.334 19.9659C131.216 22.0761 131.334 24.2023 131.334 26.3232H131.291C131.291 28.4976 131.291 30.672 131.291 32.8465C131.291 33.2482 131.388 33.382 131.827 33.382C133.058 33.3553 134.29 33.382 135.521 33.382C135.907 33.382 136.009 33.2642 136.003 32.8893C136.003 31.62 136.003 30.3507 136.003 29.0814C136.003 28.7333 136.105 28.6154 136.464 28.6154C139.269 28.6154 142.079 28.6154 144.892 28.6154C145.229 28.6154 145.315 28.7279 145.309 29.0546C145.309 30.3239 145.309 31.5932 145.309 32.8572C145.309 33.2428 145.374 33.3928 145.802 33.3928C147.033 33.3606 148.265 33.366 149.497 33.3928C149.92 33.3928 150 33.2696 150 32.8572C149.925 28.7868 149.925 24.7272 149.925 20.6675ZM144.822 23.881C143.408 23.881 142 23.881 140.587 23.881C139.173 23.881 137.834 23.881 136.464 23.881C136.046 23.881 135.928 23.7524 135.928 23.3454C135.96 22.3332 135.891 21.3102 135.976 20.3087C136.059 19.1211 136.598 18.0116 137.48 17.2128C138.363 16.414 139.52 15.988 140.71 16.0241C141.879 16.0631 142.991 16.541 143.825 17.3626C144.658 18.1843 145.152 19.2896 145.208 20.4587C145.266 21.4655 145.208 22.4831 145.234 23.4954C145.256 23.8488 145.068 23.8488 144.811 23.8488L144.822 23.881Z" fill="#108DE8"/>
<path d="M96.4342 26.4624C96.4342 24.5611 96.4342 22.6599 96.4342 20.7532C96.435 20.2641 96.401 19.7755 96.3325 19.2911C96.0025 16.9526 94.8011 14.8252 92.969 13.3353C91.1369 11.8455 88.8096 11.1033 86.4534 11.2575C81.8968 11.4664 77.9452 15.5046 77.8327 20.2444C77.7363 24.4808 77.8327 28.7226 77.8006 32.9643C77.8006 33.2803 77.9077 33.3606 78.2075 33.3553C79.4926 33.3553 80.7777 33.3553 82.0628 33.3553C82.4054 33.3553 82.4911 33.2428 82.4858 32.9161C82.4858 31.6307 82.4858 30.34 82.4858 29.0546C82.4858 28.7065 82.5768 28.5887 82.9355 28.5887C85.7234 28.5887 88.5149 28.5887 91.31 28.5887C91.7062 28.5887 91.7865 28.7333 91.7812 29.0921C91.7812 30.3614 91.7812 31.6307 91.7812 32.9C91.7812 33.2589 91.8882 33.3606 92.2416 33.3553C93.4892 33.3553 94.7422 33.3285 95.9898 33.3553C96.3807 33.3553 96.477 33.2428 96.4717 32.8679C96.4288 30.7417 96.4342 28.5994 96.4342 26.4624ZM91.3314 23.8488C89.9339 23.8488 88.5363 23.8488 87.1442 23.8488C85.752 23.8488 84.3545 23.8488 82.957 23.8488C82.5714 23.8488 82.4536 23.7364 82.4751 23.3615C82.5393 22.135 82.3465 20.8925 82.6036 19.6767C82.8344 18.5732 83.4606 17.5922 84.3641 16.9183C85.2677 16.2443 86.3863 15.9239 87.5096 16.0174C88.6328 16.1108 89.6832 16.6117 90.463 17.4257C91.2428 18.2397 91.6983 19.3108 91.7437 20.4372C91.7865 21.4334 91.7437 22.4296 91.7437 23.4257C91.7758 23.7846 91.6526 23.8488 91.3314 23.8488Z" fill="#108DE8"/>
<path d="M58.8986 11.2521C56.473 11.2521 54.0421 11.2521 51.6165 11.2521C51.14 11.2521 51.0811 11.4021 51.0811 11.8306C51.0811 15.3279 51.0811 18.8252 51.0811 22.3224C51.0811 25.8197 51.0811 29.3492 51.0811 32.8625C51.0811 33.2749 51.1881 33.3981 51.5897 33.3981C54.0528 33.3981 56.5212 33.3981 58.9843 33.3981C59.5994 33.3973 60.2129 33.3345 60.8155 33.2107C65.8327 32.2198 69.2863 28.278 69.7147 23.0669C69.8322 21.5691 69.6406 20.0632 69.1516 18.6427C68.6627 17.2221 67.887 15.9173 66.8727 14.8093C65.8583 13.7013 64.627 12.8138 63.2552 12.2018C61.8835 11.5899 60.4005 11.2666 58.8986 11.2521ZM64.9867 23.2115C64.7837 24.6789 64.0628 26.0252 62.9541 27.0074C61.8455 27.9896 60.4222 28.5429 58.9414 28.5672C58.0151 28.5672 57.0941 28.5672 56.1678 28.5672C55.8305 28.5672 55.7448 28.4708 55.7502 28.1388C55.7502 26.1839 55.7502 24.2237 55.7502 22.2475C55.7502 20.2712 55.7502 18.4395 55.7502 16.5383C55.7502 16.0723 55.884 15.9598 56.3231 16.0027C57.7099 16.083 59.1128 15.8581 60.4835 16.233C61.9536 16.6499 63.2214 17.5885 64.0493 18.8731C64.8772 20.1577 65.2086 21.7001 64.9813 23.2115H64.9867Z" fill="#108DE8"/>
</svg>
