<svg width="190" height="45" viewBox="0 0 190 45" fill="none" xmlns="http://www.w3.org/2000/svg">
<path d="M21.9011 44.1634C33.9967 44.1634 43.8021 34.3557 43.8021 22.2572C43.8021 10.1588 33.9967 0.351074 21.9011 0.351074C9.80544 0.351074 0 10.1588 0 22.2572C0 34.3557 9.80544 44.1634 21.9011 44.1634Z" fill="#02AFD9"/>
<path fill-rule="evenodd" clip-rule="evenodd" d="M9.24303 27.1715C9.49285 30.7532 11.7413 33.5018 15.9049 33.7517C19.9021 33.9183 23.816 33.9183 27.8131 33.7517C31.4772 33.5018 34.2252 30.7532 34.475 27.1715C34.6416 25.3391 34.7249 23.5066 34.6416 21.6742C33.7256 16.6766 29.5619 16.51 29.2288 16.51H29.1455H15.1555C14.6558 16.51 14.2395 16.0935 14.2395 15.5938C14.2395 15.094 14.6558 14.7608 15.1555 14.7608H29.2288C29.0622 11.4291 25.3982 10.7627 23.6494 10.6795H22.7334C20.485 10.5962 18.1533 10.6795 15.9049 10.846C11.658 11.1792 9.49285 13.7613 9.24303 17.4262C8.99321 20.6747 8.99321 23.9231 9.24303 27.1715ZM30.3113 25.2558V26.5052C30.3113 26.9217 29.9783 27.2548 29.4786 27.2548C29.0622 27.2548 28.7291 26.9217 28.7291 26.5052V25.2558C28.3128 25.0059 28.063 24.6727 28.063 24.173C28.063 23.5066 28.7291 22.9236 29.4786 22.9236C30.2281 22.9236 30.8943 23.5066 30.8943 24.173C30.8943 24.6727 30.6444 25.0059 30.3113 25.2558Z" fill="#FEFEFE"/>
<path fill-rule="evenodd" clip-rule="evenodd" d="M154.223 20.2582V24.2563C154.223 24.2563 152.808 26.9217 148.144 27.5047C143.481 28.1711 143.481 25.2558 143.814 24.5062C144.147 23.7565 145.23 22.757 149.144 22.0907C153.224 21.4243 154.223 20.2582 154.223 20.2582ZM159.72 16.4267V31.9193H154.64V29.4205C152.974 30.9198 150.643 32.3357 147.395 32.5023C137.236 32.7522 133.322 21.5076 145.646 18.1759C148.561 17.3429 151.392 17.5928 152.891 16.8432C153.89 16.2601 154.14 15.3439 153.474 14.511C150.976 11.1792 144.98 12.5119 143.315 17.093L138.235 15.8436C139.567 10.7627 143.648 8.51382 148.561 8.01406C153.807 7.5143 159.72 10.3463 159.72 16.4267ZM63.5381 13.678C59.874 13.678 56.8761 16.6766 56.8761 20.4248C56.8761 24.0897 59.874 27.0883 63.5381 27.0883C67.2021 27.0883 70.2 24.0897 70.2 20.4248C70.2 16.6766 67.2021 13.678 63.5381 13.678ZM76.6954 8.7637H70.2V11.2625C68.2014 9.51335 65.5366 8.43053 62.5388 8.43053C56.0434 8.43053 50.7139 13.8446 50.7139 20.5081C50.7139 27.2548 56.0434 32.6689 62.5388 32.6689C65.5366 32.6689 68.2014 31.5861 70.2 29.8369V32.0859C70.2 35.6675 67.6185 38.4995 64.0377 38.4995C61.0398 38.4995 58.6249 37.9164 56.6263 35.5842L52.4626 39.3324C55.8769 42.9973 59.2911 44.1634 64.121 44.1634C71.116 44.1634 76.6954 39.4157 76.6954 31.4195V27.9212V8.7637ZM189.865 8.34724H183.036L176.208 23.2568L168.38 8.34724H161.468L172.794 29.5871L166.798 41.9145H173.71L189.865 8.34724ZM122.663 13.678C126.41 13.678 129.408 16.6766 129.408 20.4248C129.408 24.0897 126.41 27.0883 122.663 27.0883C118.999 27.0883 116.001 24.0897 116.001 20.4248C116.001 16.6766 118.999 13.678 122.663 13.678ZM109.589 8.7637H116.001V11.2625C118.083 9.51335 120.747 8.43053 123.662 8.43053C130.157 8.43053 135.487 13.8446 135.487 20.5081C135.487 27.2548 130.157 32.6689 123.662 32.6689C120.747 32.6689 118.083 31.5861 116.001 29.8369V41.9145H109.589V8.7637ZM92.4341 13.5114C96.5146 13.5114 99.7623 16.6766 99.7623 20.5081C99.7623 24.4229 96.5146 27.588 92.4341 27.588C88.437 27.588 85.1893 24.4229 85.1893 20.5081C85.1893 16.6766 88.437 13.5114 92.4341 13.5114ZM92.4341 7.93077C99.5957 7.93077 105.425 13.5947 105.425 20.5081C105.425 27.5047 99.5957 33.1687 92.4341 33.1687C85.2726 33.1687 79.4434 27.5047 79.4434 20.5081C79.4434 13.5947 85.2726 7.93077 92.4341 7.93077Z" fill="#1D1819"/>
</svg>
