<svg width="170" height="58" viewBox="0 0 170 58" fill="none" xmlns="http://www.w3.org/2000/svg">
<path d="M5.01198 0.0914307H164.899C166.199 0.0914307 167.445 0.607971 168.365 1.52742C169.284 2.44687 169.8 3.69391 169.8 4.99421V52.1542C169.8 53.4545 169.284 54.7016 168.365 55.621C167.445 56.5405 166.199 57.057 164.899 57.057H5.01198C3.71243 57.0559 2.46652 56.5386 1.54816 55.6189C0.628667 54.7003 0.111496 53.4541 0.110352 52.1542V4.99421C0.111496 3.69435 0.628667 2.44814 1.54816 1.52957C2.46652 0.60986 3.71243 0.092575 5.01198 0.0914307Z" fill="#F0F0F0"/>
<path fill-rule="evenodd" clip-rule="evenodd" d="M167.933 38.7603V52.1542C167.933 52.9592 167.613 53.7312 167.044 54.3003C166.475 54.8695 165.703 55.1893 164.898 55.1893H5.01188C4.20712 55.1893 3.43533 54.8695 2.86628 54.3003C2.29723 53.7312 1.97754 52.9592 1.97754 52.1542V38.7603H167.933Z" fill="#FECF22"/>
<path fill-rule="evenodd" clip-rule="evenodd" d="M167.933 20.3165V36.8342H1.97754V20.3165H167.933Z" fill="#006AB4"/>
<path fill-rule="evenodd" clip-rule="evenodd" d="M5.01188 1.95915H164.898C165.703 1.95915 166.475 2.27891 167.044 2.84809C167.613 3.41727 167.933 4.18926 167.933 4.9942V18.3881H1.97754V4.9942C1.97754 4.18926 2.29723 3.41727 2.86628 2.84809C3.43533 2.27891 4.20712 1.95915 5.01188 1.95915Z" fill="#D61627"/>
<path d="M27.3331 13.49C38.4598 10.1912 47.8733 8.23005 56.8596 7.08607C64.8983 6.06115 72.5448 5.70162 80.7259 5.62691V5.59889H89.5068V5.62924C97.6202 5.71095 105.218 6.07983 113.205 7.10708C122.138 8.25339 131.516 10.2122 142.577 13.49C143.794 13.8496 144.977 14.4239 145.866 15.3087C146.357 15.7832 146.745 16.3528 147.007 16.9827C147.27 17.6126 147.401 18.2894 147.393 18.9718V38.172C147.401 38.8544 147.27 39.5314 147.008 40.1613C146.745 40.7912 146.357 41.3608 145.866 41.8351C144.977 42.7269 143.794 43.2942 142.577 43.6561C131.516 46.9246 122.138 48.8904 113.205 50.039C105.218 51.064 97.6202 51.4398 89.5068 51.5169V51.5449H86.6335H85.5388H84.3718H82.7379C73.8893 51.5122 65.7642 51.1924 57.2774 50.1441C48.2094 49.0118 38.6722 47.039 27.3331 43.6794C26.117 43.3176 24.9336 42.7456 24.0443 41.8584C23.5508 41.3815 23.1606 40.8081 22.898 40.1739C22.6354 39.5397 22.506 38.8583 22.5178 38.172V18.9718C22.5096 18.2894 22.6407 17.6126 22.9032 16.9827C23.1657 16.3528 23.554 15.7832 24.0443 15.3087C24.9336 14.4192 26.117 13.8496 27.3331 13.49Z" fill="white"/>
<path fill-rule="evenodd" clip-rule="evenodd" d="M104.242 35.0669C103.542 34.098 104.214 32.4848 104.709 31.5836C105.227 30.6287 105.993 29.4147 107.206 29.6482C107.762 31.6466 105.981 35.2513 104.249 35.0669H104.242ZM66.5299 29.5338C67.4285 31.7867 64.4758 35.9097 63.4792 34.7867C62.6646 33.8622 64.5622 29.0668 66.5299 29.5338ZM72.7456 34.7891L72.3931 34.0186C71.4152 34.2404 69.8723 35.1486 68.7753 34.8895C68.1801 33.526 72.4748 24.554 73.2941 21.8154L71.1397 21.9111C70.5305 22.915 69.4078 26.4263 68.8593 27.1548C65.0477 26.7555 63.4605 27.8552 61.9083 29.8863C59.3828 33.1898 61.2361 33.519 59.3408 34.6C57.6672 35.5525 57.9077 35.0132 57.7793 34.8778C57.079 34.2731 59.035 30.1058 59.2194 29.1976C59.4528 28.0139 58.846 27.0684 57.7443 27.1314C56.7149 27.1921 55.947 27.9229 55.2141 28.3174C52.6699 29.6925 55.0647 24.3859 48.1347 29.284C47.6002 29.6622 46.2674 30.4513 45.992 30.7034C46.0504 30.2692 48.046 25.9617 48.4522 24.9508C49.2341 23.0061 50.0207 20.9936 50.6859 19.0185C48.1697 18.8481 40.6773 20.1485 38.3992 22.1819C34.0904 26.0248 39.2278 31.105 42.6216 27.2015C41.8023 26.6108 40.5465 27.1828 40.3528 25.6699C40.1894 24.3719 40.6539 23.508 41.3541 22.9664C42.2108 22.308 45.971 21.631 47.2968 21.3835C47.1591 22.0839 46.5779 23.4053 46.2955 24.1851C44.811 28.3221 42.9927 34.642 37.7106 34.8054C34.9493 34.8895 34.1604 33.6568 33.1778 31.7704C32.5732 32.4544 32.3258 33.8716 32.6736 34.8988C32.9864 35.8327 33.7146 36.463 34.5782 36.8786C38.7049 38.8724 42.3461 35.5175 45.2754 33.2482C46.0154 32.6739 48.7766 29.8863 50.1771 30.5797C50.966 32.1486 48.6786 35.4498 48.6272 37.0817L51.3441 37.1401C51.8343 35.793 52.2334 34.3221 52.6979 32.9073C53.0947 31.7073 53.6479 29.5641 55.2258 30.6521C55.8326 32.2653 53.2628 35.6436 54.6702 36.7759C56.1291 37.9432 59.4062 35.6085 60.1857 35.1276C60.795 36.0054 60.7856 37.1004 62.3565 37.3642C63.6076 37.5767 64.8796 36.9837 65.5915 36.3977C66.035 36.944 65.9253 37.4926 66.95 37.3946C67.9747 37.2965 70.9577 35.3377 72.7526 34.7961L72.7456 34.7891ZM124.346 32.4871C124.224 31.07 125.786 29.1135 126.897 29.1649C127.266 29.9984 126.619 30.9159 126.197 31.4038C125.73 31.9665 125.223 32.5712 124.329 32.4871H124.346ZM83.4382 29.1042L83.7486 30.0591C84.5982 29.8256 85.5435 29.263 86.3931 29.4988C86.6616 31.1167 84.2061 35.5689 83.8513 37.4366L86.5262 37.3829C87.056 36.4957 87.6092 34.4202 88.02 33.3299C88.4425 32.1999 88.9397 29.9914 90.4965 30.5283C91.4138 32.34 88.9163 35.5992 88.7296 37.3712L91.7849 37.3992C92.3498 35.765 92.9893 33.7455 93.6522 32.1392C93.9813 31.3408 94.3291 30.0918 95.5195 30.4233C96.871 30.8015 94.5392 33.3323 94.5625 35.5712C94.5625 36.5728 95.2628 37.4529 96.2548 37.3549C97.5829 37.2241 99.8143 35.4031 100.958 35.1463C101.481 36.3253 101.591 37.0607 102.989 37.2802C104.387 37.4996 105.311 36.8272 106.228 36.2949C106.256 36.3248 106.281 36.3568 106.303 36.3906L106.509 36.6801C106.786 37.0864 106.945 37.4016 107.629 37.4693C109.884 37.7027 113.212 34.1004 114.512 32.3821C115.966 30.463 115.373 30.6077 117.241 30.4443C116.832 32.2116 114.818 35.0389 116.52 36.7479C118.221 38.4568 121.627 36.1502 122.658 35.5455C123.611 36.5984 124.115 37.5323 126.381 37.4296C128.164 37.3455 129.154 36.6264 130.583 36.2132C132.324 39.0732 138.012 36.2576 137.797 34.5183C137.062 34.3758 136.203 35.4008 135.449 35.807C134.406 36.3673 133.348 36.0101 133.323 34.7984C133.309 34.1961 134.768 29.7439 135.055 29.1952L136.78 29.1766L137.351 27.2178L136.14 27.1944C136.373 25.14 137.456 23.3796 137.825 21.5609L135.405 21.6566L133.463 27.0264L131.689 27.1291L131.271 29.1462L132.672 29.1229C132.375 31.035 131.271 33.6171 130.295 34.8311C129.289 36.0895 125.681 36.8389 125.027 34.6397C125.872 33.6918 127.347 33.4723 128.498 31.4809C131.388 26.4847 125.623 25.8777 123.272 29.354C121.804 31.5276 122.257 32.2023 122.338 34.7751C119.437 36.3883 118.419 36.7105 118.679 33.8669C118.938 31.0233 119.379 31.4178 119.86 30.9065C120.226 30.5167 120.364 29.8093 119.965 29.424C119.498 28.9571 118.716 29.3703 117.864 29.0622C117.318 27.7104 118.254 27.4863 118.63 26.7462C118.13 26.6295 117.733 26.6972 117.229 26.6201C116.041 26.4357 117.103 26.4053 116.307 25.9477C115.623 26.2116 115.577 26.2349 115.336 27.003C114.636 29.2139 114.893 29.6949 113.684 31.3968C113.025 32.3307 110.796 35.4334 109.265 34.8615C108.565 33.9276 111.256 28.4598 111.599 27.0917C108.852 26.8863 109.265 27.4092 108.878 27.8341C106.338 26.6925 105.001 27.6637 103.441 29.0482C101.21 31.0303 101.107 33.8832 100.839 34.1984C100.162 34.6373 98.7896 35.2443 97.7836 34.8801C97.4942 33.7338 99.2704 30.3859 99.5599 29.0201C99.8656 27.582 99.037 26.8162 97.5875 27.1921C96.4998 27.4723 96.082 28.4808 95.083 28.6116C94.2404 28.0162 94.2007 26.7742 92.4805 27.0684C91.2644 27.2785 91.1874 28.2357 89.8126 28.4995C89.787 28.46 89.7659 28.4177 89.7496 28.3734L89.5979 27.9952C89.5302 27.8061 89.3761 27.2155 89.0704 27.0614C87.6816 26.8839 84.9086 28.6746 83.4545 29.1019L83.4382 29.1042Z" fill="#006AB4"/>
<path d="M78.0112 28.3104C78.7949 28.3104 79.5543 28.5822 80.1601 29.0796C80.7658 29.5769 81.1804 30.269 81.3331 31.0378C81.4858 31.8067 81.3672 32.6047 80.9976 33.2959C80.6279 33.9871 80.03 34.5287 79.3058 34.8283C78.5816 35.1279 77.776 35.1671 77.0262 34.9391C76.2764 34.7111 75.6288 34.2301 75.1939 33.578C74.7589 32.9259 74.5636 32.1431 74.641 31.3631C74.7185 30.583 75.064 29.854 75.6187 29.3003C75.9326 28.9856 76.3055 28.7359 76.7161 28.5657C77.1266 28.3954 77.5668 28.3078 78.0112 28.308V28.3104ZM78.0112 25.3921C79.4692 25.3919 80.8822 25.8973 82.0094 26.8224C83.1366 27.7474 83.9083 29.0347 84.1929 30.4651C84.4775 31.8954 84.2575 33.3802 83.5704 34.6664C82.8832 35.9527 81.7715 36.9608 80.4245 37.5191C79.0775 38.0773 77.5787 38.1512 76.1834 37.728C74.7881 37.3048 73.5826 36.4108 72.7724 35.1983C71.9623 33.9858 71.5975 32.5298 71.7403 31.0784C71.883 29.6271 72.5245 28.2701 73.5554 27.2388C74.1399 26.6526 74.8344 26.1877 75.5991 25.8707C76.3637 25.5538 77.1835 25.3912 78.0112 25.3921ZM81.9792 27.7267C81.0645 26.8086 79.8598 26.2361 78.5704 26.1067C77.2811 25.9773 75.9867 26.299 74.9079 27.0171C73.8291 27.7351 73.0325 28.8051 72.6538 30.0446C72.2752 31.2842 72.3379 32.6168 72.8313 33.8153C73.3247 35.0138 74.2182 36.0042 75.3597 36.6177C76.5012 37.2312 77.8201 37.4298 79.0916 37.1799C80.3631 36.9299 81.5087 36.2467 82.3331 35.2467C83.1575 34.2467 83.6099 32.9918 83.6131 31.6956C83.6158 30.959 83.4728 30.2291 83.1924 29.548C82.912 28.8668 82.4997 28.2479 81.9792 27.7267ZM78.0112 26.8442C79.1323 26.8437 80.219 27.2321 81.0859 27.9432C81.9529 28.6543 82.5464 29.6441 82.7655 30.7439C82.9846 31.8437 82.8156 32.9854 82.2874 33.9746C81.7591 34.9637 80.9043 35.739 79.8686 36.1684C78.8328 36.5977 77.6803 36.6546 76.6074 36.3292C75.5344 36.0038 74.6075 35.3164 73.9846 34.384C73.3616 33.4516 73.0812 32.332 73.191 31.216C73.3009 30.1 73.7942 29.0566 74.5871 28.2637C75.0362 27.8132 75.5699 27.4559 76.1576 27.2123C76.7452 26.9687 77.3751 26.8436 78.0112 26.8442ZM80.9405 28.7586C80.2624 28.0802 79.37 27.6579 78.4155 27.5638C77.461 27.4697 76.5034 27.7095 75.7059 28.2425C74.9084 28.7755 74.3203 29.5686 74.0419 30.4867C73.7635 31.4048 73.8121 32.391 74.1792 33.2773C74.5463 34.1636 75.2094 34.8951 76.0554 35.3472C76.9013 35.7993 77.8779 35.944 78.8185 35.7566C79.7592 35.5692 80.6058 35.0614 81.2141 34.3196C81.8223 33.5778 82.1546 32.648 82.1542 31.6886C82.1548 31.1444 82.0479 30.6053 81.8396 30.1025C81.6313 29.5997 81.3257 29.143 80.9405 28.7586ZM79.9088 29.7906C79.4696 29.3514 78.8917 29.0782 78.2737 29.0174C77.6556 28.9567 77.0357 29.1122 76.5194 29.4574C76.0031 29.8026 75.6225 30.3162 75.4424 30.9107C75.2622 31.5052 75.2938 32.1437 75.5316 32.7175C75.7694 33.2913 76.1987 33.7649 76.7465 34.0576C77.2943 34.3503 77.9265 34.4439 78.5356 34.3226C79.1446 34.2012 79.6928 33.8724 80.0866 33.3921C80.4804 32.9118 80.6956 32.3098 80.6954 31.6886C80.6958 31.336 80.6265 30.9868 80.4915 30.6611C80.3566 30.3353 80.1585 30.0395 79.9088 29.7906Z" fill="#D61627"/>
<path fill-rule="evenodd" clip-rule="evenodd" d="M28.1198 16.1702C50.1094 9.65418 65.2321 8.43549 83.5269 8.40047H86.706C104.854 8.44716 119.93 9.69153 141.791 16.1679C143.268 16.6068 144.592 17.4286 144.592 18.9694V38.172C144.592 39.7129 143.268 40.537 141.791 40.9736C119.93 47.4522 104.854 48.6943 86.706 48.7433H84.3718C65.699 48.7433 50.4479 47.5876 28.1198 40.9712C26.6423 40.5346 25.3188 39.7105 25.3188 38.1696V18.9718C25.3188 17.4309 26.6423 16.6091 28.1198 16.1702ZM83.9237 12.6098C66.838 12.6729 51.5309 13.3243 31.5042 18.5049C30.0127 18.8924 28.7033 19.7656 28.7033 21.3064V35.8373C28.7033 37.3782 30.0127 38.2537 31.5042 38.6389C51.3745 43.7752 66.5999 44.4615 83.5269 44.5339H86.3885C103.313 44.4756 118.536 43.7752 138.407 38.6389C139.898 38.2537 141.207 37.3782 141.207 35.8373V21.3064C141.207 19.7656 139.898 18.8924 138.407 18.5049C118.38 13.3243 103.073 12.6682 85.9871 12.6098H83.9237Z" fill="#D61627"/>
</svg>
