<svg width="193" height="57" viewBox="0 0 193 57" fill="none" xmlns="http://www.w3.org/2000/svg">
<path d="M0.201481 38.8871C0.201481 36.11 0.152338 33.7752 0 31.6912H5.26302L5.50873 35.2695H5.65615C6.41191 33.9752 7.50182 32.908 8.81167 32.1798C10.1215 31.4517 11.6031 31.0894 13.101 31.1308C14.5419 31.0905 15.9597 31.4981 17.1593 32.2974C18.3589 33.0967 19.2811 34.2484 19.799 35.5939H19.9022C20.6419 34.3665 21.6605 33.3309 22.8752 32.571C24.2997 31.5799 26.0059 31.0748 27.7402 31.1308C31.7599 31.1308 35.8239 33.8588 35.8239 41.6052V55.8595H29.8729V42.4949C29.8729 38.4791 28.4822 36.1051 25.5534 36.1051C23.4698 36.1051 21.9317 37.5796 21.288 39.3295C21.1091 39.9921 21.0085 40.6734 20.9882 41.3595V55.8448H15.0372V41.8363C15.0372 38.4693 13.6956 36.0854 10.8651 36.0854C8.58988 36.0854 7.05176 37.8696 6.49646 39.5556C6.25773 40.1831 6.14098 40.8504 6.15248 41.5217V55.8448H0.201481V38.8871Z" fill="#003D79"/>
<path d="M59.0228 50.0399C58.9934 51.9807 59.1083 53.921 59.3668 55.8448H53.8581L53.4601 53.1709H53.3126C52.4437 54.213 51.3495 55.0443 50.1127 55.602C48.8758 56.1597 47.5286 56.4292 46.1724 56.3904C41.3074 56.3904 38.5752 52.871 38.5752 49.1944C38.5752 43.0897 43.9807 40.0176 52.9195 40.0668V39.6687C52.9195 38.081 52.2708 35.4464 48.0054 35.4464C45.7189 35.4506 43.4753 36.0685 41.5089 37.2356L40.3197 33.2641C42.1035 32.1729 45.2338 31.1308 49.0472 31.1308C56.7918 31.1308 59.0277 36.0461 59.0277 41.3054L59.0228 50.0399ZM53.0669 44.0383C48.7474 43.94 44.6294 44.8788 44.6294 48.5505C44.6294 50.9344 46.1724 52.0256 48.1037 52.0256C49.1467 52.0438 50.1689 51.7318 51.0241 51.1342C51.8793 50.5366 52.5237 49.6839 52.8655 48.698C53.0007 48.2653 53.0686 47.8144 53.0669 47.361V44.0383Z" fill="#003D79"/>
<path d="M63.2249 38.8871C63.2249 36.11 63.1708 33.7752 63.0283 31.6911H68.3798L68.6796 35.3186H68.8319C69.8688 33.4312 72.5027 31.1456 76.5225 31.1456C80.7388 31.1456 85.1025 33.8735 85.1025 41.5217V55.8448H79.0139V42.2C79.0139 38.7249 77.7215 36.0952 74.3996 36.0952C73.3325 36.1202 72.3 36.478 71.4462 37.1187C70.5924 37.7594 69.9602 38.6509 69.6378 39.6686C69.4519 40.3068 69.369 40.9705 69.3921 41.6347V55.8448H63.2249V38.8871Z" fill="#003D79"/>
<path d="M111.575 21.9688V49.0469C111.575 51.5292 111.678 54.2129 111.776 55.8447H106.322L106.071 52.0256H105.978C104.538 54.7044 101.609 56.3903 98.0906 56.3903C92.3312 56.3903 87.7709 51.4751 87.7709 44.0383C87.7169 35.9478 92.7784 31.1308 98.582 31.1308C101.904 31.1308 104.287 32.5169 105.378 34.311H105.486V21.9688H111.575ZM105.486 41.7527C105.487 41.2182 105.436 40.6849 105.334 40.1601C105.094 38.9422 104.439 37.8456 103.479 37.0582C102.52 36.2708 101.317 35.8417 100.076 35.8445C96.1446 35.8445 93.9725 39.3196 93.9725 43.8368C93.9725 48.2605 96.1593 51.48 100.032 51.48C101.269 51.4703 102.467 51.036 103.423 50.2496C104.379 49.4632 105.036 48.3724 105.285 47.1595C105.432 46.5766 105.5 45.9764 105.486 45.3752V41.7527Z" fill="#003D79"/>
<path d="M115.895 55.8447V31.6764H122.047V55.8447H115.895Z" fill="#003D79"/>
<path d="M126.362 39.472C126.362 36.1935 126.312 33.8588 126.165 31.6764H131.477L131.669 36.2869H131.87C133.064 32.8462 135.89 31.6764 138.475 31.6764C138.952 31.6271 139.433 31.6271 139.91 31.6764V37.039C139.324 36.9111 138.726 36.8452 138.126 36.8424C135.178 36.8424 133.212 38.7249 132.666 41.4529C132.545 42.0749 132.479 42.7066 132.47 43.3403V55.8448H126.362V39.472Z" fill="#003D79"/>
<path d="M142.74 55.8447V31.6764H148.888V55.8447H142.74Z" fill="#003D79"/>
<path d="M187.184 6.11707C184.142 2.64198 180.899 4.21487 178.339 5.49283C177.257 6.02368 169.444 10.4573 169.444 10.4573C165.164 12.2218 161.827 10.295 160.52 8.67301C160.395 8.51741 160.282 8.35315 160.181 8.18148L159.876 7.65063C159.359 6.76022 158.786 5.90327 158.161 5.08487C157.78 4.59064 157.368 4.12111 156.928 3.6791C153.979 0.729944 149.316 -1.34921 141.493 2.41096C137.787 4.55893 125.718 11.4551 125.718 11.4551C121.187 13.3229 117.718 11.0471 116.593 9.38081C116.54 9.31956 116.495 9.25183 116.46 9.17928L116.313 8.9286L115.546 7.67521C115.217 7.18369 114.853 6.62826 114.44 6.08266C114.055 5.59066 113.641 5.12129 113.202 4.6769C110.293 1.72774 105.639 -0.326835 97.8797 3.35961L82.2823 12.2808L74.2969 16.8471L78.4247 21.9196C80.1643 23.5761 83.4322 26.2942 88.4888 24.0037C88.4888 24.0037 102.44 15.923 102.494 15.8985C114.421 9.35132 120.308 15.6084 122.907 19.7766C123.001 19.9044 123.074 20.0469 123.153 20.1747C123.183 20.2239 123.202 20.273 123.232 20.3222L123.527 20.8137C124.119 21.7764 124.952 22.5687 125.942 23.1132C126.933 23.6577 128.048 23.9358 129.178 23.9202C130.49 23.8907 131.384 23.463 132.682 22.7405L146.181 14.9105H146.21C158.284 8.27979 164.269 14.9449 166.849 19.1179C167.049 19.4709 167.269 19.8123 167.508 20.1403C168.771 21.8607 170.52 22.9813 172.736 22.9273C173.917 22.8255 175.061 22.4611 176.083 21.8607L192.27 12.5217C190.705 10.2867 189.006 8.14799 187.184 6.11707Z" fill="url(#paint0_linear_240_20)"/>
<defs>
<linearGradient id="paint0_linear_240_20" x1="84.1676" y1="37.0123" x2="210.19" y2="-21.1726" gradientUnits="userSpaceOnUse">
<stop stop-color="#FDB913"/>
<stop offset="0.22" stop-color="#FFCB05"/>
<stop offset="0.39" stop-color="#FAA61A"/>
<stop offset="0.53" stop-color="#FFCB05"/>
<stop offset="0.65" stop-color="#FBAB17"/>
<stop offset="0.69" stop-color="#FDBD0D"/>
<stop offset="0.72" stop-color="#FFC807"/>
<stop offset="0.76" stop-color="#FFCB05"/>
<stop offset="0.8" stop-color="#FFCB05"/>
<stop offset="1" stop-color="#FFCB05"/>
</linearGradient>
</defs>
</svg>
