<svg width="98" height="76" viewBox="0 0 98 76" fill="none" xmlns="http://www.w3.org/2000/svg">
<path d="M95.213 74.3925V74.5853H95.3928C95.4265 74.5858 95.4598 74.5774 95.4892 74.5607C95.5009 74.5524 95.5103 74.5413 95.5166 74.5285C95.523 74.5156 95.5259 74.5013 95.5253 74.487C95.5259 74.4729 95.5229 74.4589 95.5166 74.4464C95.5103 74.4338 95.5008 74.423 95.4892 74.4152C95.4601 74.3977 95.4266 74.3892 95.3928 74.3906H95.213V74.3925ZM95.3947 74.2561C95.4718 74.2514 95.5481 74.2735 95.6106 74.3188C95.6357 74.3393 95.6556 74.3654 95.6688 74.3951C95.6819 74.4247 95.6879 74.457 95.6863 74.4894C95.6875 74.5173 95.6826 74.5451 95.6722 74.5709C95.6617 74.5968 95.6458 74.6201 95.6256 74.6393C95.5773 74.6812 95.5168 74.7064 95.453 74.7111L95.694 74.9858H95.5084L95.2867 74.713H95.2149V74.9858H95.0597V74.2566H95.3971L95.3947 74.2561ZM95.3465 75.2374C95.4279 75.2382 95.5085 75.2218 95.5832 75.1892C95.6551 75.1583 95.7205 75.1139 95.776 75.0586C95.8315 75.0034 95.8759 74.9379 95.9066 74.8658C95.9698 74.713 95.9698 74.5414 95.9066 74.3886C95.8754 74.3168 95.8311 74.2514 95.776 74.1959C95.7205 74.1405 95.6551 74.0962 95.5832 74.0652C95.5081 74.0345 95.4276 74.0191 95.3465 74.0199C95.264 74.0192 95.1821 74.0346 95.1055 74.0652C95.032 74.0956 94.965 74.14 94.9083 74.1959C94.8231 74.2833 94.7654 74.3939 94.7425 74.5139C94.7197 74.6339 94.7326 74.7579 94.7796 74.8706C94.809 74.943 94.8528 75.0086 94.9083 75.0634C94.965 75.1193 95.032 75.1636 95.1055 75.1941C95.1816 75.2266 95.2637 75.243 95.3465 75.2423M95.3465 73.8445C95.5583 73.8443 95.7618 73.9274 95.9129 74.0758C95.9857 74.1471 96.0437 74.2322 96.0835 74.326C96.1247 74.4223 96.1459 74.5261 96.1459 74.6308C96.1459 74.7356 96.1247 74.8394 96.0835 74.9357C96.0428 75.029 95.9849 75.1139 95.9129 75.1859C95.8389 75.2568 95.7529 75.3139 95.6588 75.3546C95.5601 75.3965 95.4538 75.4178 95.3465 75.4172C95.2379 75.418 95.1303 75.3967 95.0303 75.3546C94.9352 75.3148 94.8483 75.2576 94.7743 75.1859C94.7023 75.1112 94.6452 75.0236 94.6061 74.9275C94.5649 74.8312 94.5437 74.7275 94.5437 74.6227C94.5437 74.5179 94.5649 74.4142 94.6061 74.3178C94.6459 74.224 94.7039 74.1389 94.7768 74.0676C94.8498 73.9946 94.9368 73.9373 95.0327 73.899C95.1328 73.8568 95.2403 73.8355 95.3489 73.8363M21.5406 71.0282C21.5406 69.6377 22.4516 68.4954 23.9406 68.4954C25.3635 68.4954 26.3236 69.5885 26.3236 71.0282C26.3236 72.4679 25.3635 73.5611 23.9406 73.5611C22.4516 73.5611 21.5406 72.4188 21.5406 71.0282ZM27.9456 71.0282V67.0711H26.2253V68.0351C25.6797 67.3227 24.852 66.8759 23.7265 66.8759C21.5093 66.8759 19.7692 68.6149 19.7692 71.0302C19.7692 73.4454 21.5083 75.1844 23.7265 75.1844C24.8516 75.1844 25.6797 74.7371 26.2253 74.0252V74.9858H27.9437V71.0282H27.9456ZM86.0726 71.0282C86.0726 69.6377 86.9836 68.4954 88.473 68.4954C89.8973 68.4954 90.8561 69.5885 90.8561 71.0282C90.8561 72.4679 89.8973 73.5611 88.473 73.5611C86.984 73.5611 86.0726 72.4188 86.0726 71.0282ZM92.4795 71.0282V63.8948H90.7577V68.0351C90.2121 67.3227 89.3845 66.8759 88.259 66.8759C86.0417 66.8759 84.3016 68.6149 84.3016 71.0302C84.3016 73.4454 86.0407 75.1844 88.259 75.1844C89.3845 75.1844 90.2121 74.7371 90.7577 74.0252V74.9858H92.4795V71.0282ZM49.2969 68.4139C50.4055 68.4139 51.1174 69.109 51.2992 70.3327H47.1943C47.378 69.1904 48.0716 68.4139 49.2974 68.4139M49.3316 66.8716C47.0131 66.8716 45.3911 68.5585 45.3911 71.0258C45.3911 73.5413 47.0782 75.1801 49.4468 75.1801C50.6383 75.1801 51.7296 74.8827 52.6898 74.0715L51.8467 72.7966C51.1835 73.3268 50.339 73.6242 49.5451 73.6242C48.4365 73.6242 47.4271 73.1109 47.1789 71.6866H53.0532C53.0701 71.4726 53.0874 71.2567 53.0874 71.0253C53.0701 68.559 51.545 66.8711 49.3306 66.8711M70.1006 71.0253C70.1006 69.6348 71.0116 68.4925 72.5005 68.4925C73.9234 68.4925 74.8836 69.5856 74.8836 71.0253C74.8836 72.465 73.9234 73.5582 72.5005 73.5582C71.0116 73.5582 70.1001 72.4159 70.1001 71.0253M76.5051 71.0253V67.0711H74.7857V68.0351C74.2382 67.3227 73.4125 66.8759 72.287 66.8759C70.0697 66.8759 68.3297 68.6149 68.3297 71.0302C68.3297 73.4454 70.0687 75.1844 72.287 75.1844C73.4125 75.1844 74.2382 74.7371 74.7857 74.0252V74.9858H76.5056V71.0282L76.5051 71.0253ZM60.3856 71.0253C60.3856 73.4252 62.0562 75.1796 64.6061 75.1796C65.7976 75.1796 66.5915 74.9145 67.45 74.2363L66.6238 72.8458C65.9779 73.31 65.2997 73.5582 64.5511 73.5582C63.1779 73.5413 62.1681 72.5484 62.1681 71.0253C62.1681 69.5023 63.1779 68.5098 64.5511 68.4925C65.2978 68.4925 65.976 68.7407 66.6238 69.2049L67.45 67.8143C66.5901 67.1362 65.7962 66.8711 64.6061 66.8711C62.0562 66.8711 60.3856 68.625 60.3856 71.0253ZM82.563 66.8711C81.5706 66.8711 80.9242 67.3352 80.4773 68.0303V67.0711H78.7725V74.9815H80.4947V70.5472C80.4947 69.2381 81.0572 68.5108 82.1817 68.5108C82.55 68.5055 82.9156 68.5731 83.2576 68.7099L83.7878 67.0885C83.407 66.9386 82.9106 66.8725 82.5621 66.8725M36.4507 67.7001C35.6231 67.1545 34.4827 66.8725 33.2246 66.8725C31.2204 66.8725 29.9301 67.8331 29.9301 69.4049C29.9301 70.6947 30.8907 71.4905 32.6597 71.7387L33.4724 71.8544C34.4157 71.9869 34.8611 72.2351 34.8611 72.6819C34.8611 73.2936 34.2344 73.6425 33.0578 73.6425C31.8663 73.6425 31.0064 73.2618 30.4265 72.815L29.6182 74.1563C30.5615 74.8514 31.753 75.183 33.0434 75.183C35.3281 75.183 36.6522 74.1072 36.6522 72.601C36.6522 71.2104 35.6101 70.4831 33.8884 70.2349L33.0776 70.1173C32.3329 70.0209 31.7362 69.871 31.7362 69.3408C31.7362 68.7624 32.2987 68.4144 33.2425 68.4144C34.2523 68.4144 35.2298 68.7952 35.7089 69.0926L36.4536 67.702L36.4507 67.7001ZM58.6479 66.874C57.6555 66.874 57.0091 67.3381 56.5642 68.0332V67.0711H54.8593V74.9815H56.5796V70.5472C56.5796 69.2381 57.1421 68.5108 58.2667 68.5108C58.6349 68.5055 59.0006 68.5731 59.3425 68.7099L59.8727 67.0885C59.4919 66.9386 58.9955 66.8725 58.647 66.8725M43.9677 67.0711H41.1547V64.6713H39.4156V67.0711H37.811V68.6434H39.4156V72.252C39.4156 74.0874 40.128 75.1806 42.1631 75.1806C42.9097 75.1806 43.7696 74.9492 44.3153 74.5689L43.8183 73.096C43.305 73.3933 42.7425 73.5432 42.2951 73.5432C41.4352 73.5432 41.1547 73.0131 41.1547 72.2192V68.6448H43.9677V67.0711ZM18.248 74.9834V70.0189C18.248 68.1493 17.0564 66.8913 15.1356 66.8745C14.1258 66.8576 13.0842 67.1718 12.3549 68.2819C11.8093 67.4046 10.9493 66.8745 9.74045 66.8745C8.89548 66.8745 8.06979 67.1227 7.42341 68.0491V67.0711H5.70166V74.9815H7.43691V70.5954C7.43691 69.2222 8.19849 68.4925 9.3746 68.4925C10.517 68.4925 11.0949 69.2372 11.0949 70.5781V74.9805H12.834V70.5944C12.834 69.2213 13.6279 68.4915 14.7698 68.4915C15.9444 68.4915 16.505 69.2362 16.505 70.5771V74.9796L18.248 74.9834Z" fill="#231F20"/>
<path d="M96.1944 48.6695V47.513H95.8931L95.5446 48.3066L95.1981 47.513H94.8959V48.6695H95.1099V47.7982L95.4357 48.55H95.6574L95.9833 47.7963V48.6695H96.1954H96.1944ZM94.2832 48.6695V47.711H94.6688V47.5159H93.6836V47.711H94.0692V48.6695H94.2813H94.2832Z" fill="#F79410"/>
<path d="M61.9535 53.6309H35.8833V6.78163H61.954L61.9535 53.6309Z" fill="#FF5F00"/>
<path d="M37.5363 30.2072C37.5363 20.7038 41.9862 12.2382 48.9156 6.78258C43.6704 2.64686 37.1829 0.402273 30.5032 0.412142C14.0487 0.412142 0.710449 13.7516 0.710449 30.2072C0.710449 46.6627 14.0487 60.0022 30.5032 60.0022C37.1831 60.0122 43.6708 57.7676 48.9161 53.6318C41.9872 48.1772 37.5363 39.711 37.5363 30.2072Z" fill="#EB001B"/>
<path d="M97.1246 30.2072C97.1246 46.6628 83.7863 60.0023 67.3318 60.0023C60.6513 60.0121 54.1628 57.7675 48.9165 53.6318C55.8479 48.1762 60.2978 39.7111 60.2978 30.2072C60.2978 20.7034 55.8479 12.2382 48.9165 6.78261C54.1627 2.64702 60.651 0.402476 67.3313 0.412171C83.7858 0.412171 97.1241 13.7517 97.1241 30.2072" fill="#F79E1B"/>
</svg>
