<svg width="150" height="50" viewBox="0 0 150 50" fill="none" xmlns="http://www.w3.org/2000/svg">
<path d="M24.4232 49.5353C10.8482 49.6585 0.0160892 38.9256 1.77378e-05 24.9992C-0.0160537 11.0727 10.8911 0.350586 24.4286 0.350586C37.7464 0.350586 48.7714 10.9548 48.7286 25.026C48.6911 38.8988 37.8804 49.6371 24.4232 49.5353ZM9.12859 25.235C9.20894 26.0601 9.30001 27.1425 9.42859 28.2196C9.49868 28.704 9.59887 29.1836 9.72859 29.6556C11.3357 36.1446 16.5482 40.9458 23.1214 41.4173C28.3286 41.7924 32.6464 39.9866 35.9036 35.9142C40.2964 30.438 40.7946 22.186 37.2322 15.9489C36.2417 14.1798 34.8969 12.6342 33.2819 11.4088C31.6669 10.1834 29.8165 9.3046 27.8464 8.82729C25.8762 8.34999 23.8288 8.28449 21.8322 8.6349C19.8357 8.98531 17.9328 9.74408 16.2429 10.8638C11.2661 14.1913 9.2893 19.1425 9.12859 25.235Z" fill="#4C3494"/>
<path d="M125.646 0.409523C138.835 0.211262 150.021 10.7244 150 24.9938C149.973 39.0703 139.173 49.2459 126.321 49.5513C112.13 49.8943 101.228 38.8345 101.266 24.9027C101.303 10.9709 112.189 0.243413 125.646 0.409523ZM140.984 24.9992C140.759 23.472 140.641 21.9181 140.287 20.4231C138.707 13.7198 133.468 9.11155 127.259 8.54356C121.901 8.05059 117.273 9.77599 114.043 14.1109C109.51 20.1927 109.146 26.8639 112.548 33.5619C117.085 42.4836 129.155 44.2358 136.157 37.1038C139.43 33.7709 140.791 29.6342 140.984 24.9992Z" fill="#4C3494"/>
<path d="M50.6944 1.67411H52.398C58.0069 1.67411 63.6158 1.67411 69.2301 1.67411C69.9801 1.67411 70.3015 1.8295 70.2533 2.66005C70.189 4.64266 70.1998 6.63598 70.2533 8.62394C70.2533 9.42234 70.0926 9.74385 69.2194 9.69562C68.0355 9.61525 66.8462 9.69562 65.5015 9.69562C69.2515 18.5477 72.9212 27.2658 76.6498 36.1018L87.4176 9.7117H82.7998V1.71162H98.2605C98.0944 3.59777 98.5872 5.46249 97.7837 7.33257C93.889 16.3668 90.0587 25.4279 86.2015 34.4782C84.1873 39.2043 82.1515 43.9197 80.1748 48.6618C80.085 48.949 79.8963 49.1949 79.6422 49.3558C79.3881 49.5168 79.0851 49.5822 78.7873 49.5406C75.7605 49.6424 73.264 48.5868 71.5337 46.1005C70.7969 44.9266 70.1778 43.6828 69.6855 42.3872C65.0783 31.7883 60.4855 21.184 55.9069 10.5744C55.8219 10.2526 55.6184 9.9749 55.3372 9.79699C55.056 9.61908 54.7179 9.55415 54.3908 9.61525C53.389 9.69562 52.3765 9.61525 51.3694 9.61525C50.8926 9.61525 50.6783 9.50272 50.6837 8.98295C50.7051 6.63062 50.6944 4.23006 50.6944 1.67411Z" fill="#4C3494"/>
</svg>
