<svg width="172" height="45" viewBox="0 0 172 45" fill="none" xmlns="http://www.w3.org/2000/svg">
<path d="M130.951 27.4109C130.366 27.7794 129.748 28.0949 129.101 28.3635C128.231 28.7146 127.406 28.8985 126.643 28.8985C125.472 28.8985 124.572 28.7328 123.964 28.3786C123.354 28.0425 123.035 27.4585 123.045 26.6224C123.045 25.6571 123.268 24.9082 123.729 24.3209C124.193 23.7559 124.883 23.301 125.739 22.9618C126.59 22.6733 127.637 22.4355 128.845 22.2652C129.92 22.1296 132.044 21.8848 132.315 21.8832C132.587 21.8808 132.768 21.731 132.647 22.4554C132.593 22.77 131.98 25.2886 131.698 26.4338C131.617 26.7769 131.16 27.277 130.951 27.4109ZM139.288 9.70944C137.499 8.71088 134.7 8.20605 130.871 8.20605C128.977 8.20605 127.074 8.35821 125.165 8.65461C123.763 8.86938 123.619 8.90504 122.748 9.09445C120.957 9.48437 120.68 11.2786 120.68 11.2786L120.105 13.645C119.779 15.1587 120.641 15.0961 121.025 14.9788C121.807 14.7427 122.231 14.5081 123.827 14.1467C125.352 13.8004 126.963 13.5412 128.249 13.5515C130.135 13.5515 131.569 13.7584 132.522 14.1562C133.476 14.5723 133.948 15.2808 133.948 16.2944C133.952 16.5353 133.958 16.7628 133.871 16.9617C133.792 17.1471 133.642 17.3262 133.191 17.3873C130.499 17.5474 128.568 17.793 126.242 18.1322C123.946 18.4556 121.938 19.0095 120.259 19.7767C118.469 20.5708 117.13 21.6335 116.207 22.98C115.308 24.3328 114.857 25.9709 114.854 27.9007C114.854 29.7243 115.51 31.2118 116.777 32.3665C118.06 33.5061 119.729 34.0704 121.747 34.0704C123.009 34.0617 123.996 33.9705 124.704 33.7938C125.404 33.6171 126.168 33.3658 126.974 33.0163C127.577 32.7643 128.228 32.3998 128.915 31.9425C129.603 31.4836 130.079 31.1579 130.69 30.7577L130.712 30.7957L130.54 31.5542C130.539 31.5613 130.529 31.5653 130.529 31.5724L130.534 31.5867C130.338 32.5004 130.887 33.2604 131.792 33.35L131.803 33.3658H131.883L131.886 33.3698C132.487 33.3698 134.548 33.369 135.512 33.3658H136.184C136.229 33.3658 136.234 33.3524 136.251 33.3421C137.175 33.2287 138.061 32.4758 138.269 31.5724L141.71 16.7168C141.789 16.3673 141.852 15.9639 141.889 15.4995C141.932 15.0303 141.983 14.6444 141.968 14.3654C141.976 12.2629 141.072 10.7088 139.288 9.70944Z" fill="#336699"/>
<path d="M80.0901 8.53492C79.0807 8.53492 77.7567 9.352 77.13 10.3395C77.13 10.3395 70.3778 21.918 69.7146 23.0751C69.3541 23.6972 68.9889 23.3017 68.9279 23.0703C68.8787 22.789 66.8353 10.4156 66.8353 10.4156C66.6055 9.41936 65.5652 8.56425 64.2642 8.56821L60.0538 8.57455C59.0389 8.57455 58.4058 9.38766 58.6316 10.3704C58.6316 10.3704 61.85 28.6171 62.4775 32.9085C62.7905 35.2821 62.4451 35.7029 62.4451 35.7029L58.2727 42.9797C57.6618 43.9664 57.9962 44.7748 59.0064 44.7748L63.8855 44.7708C64.8957 44.7708 66.2339 43.9664 66.8353 42.9782L85.6055 11.2247C85.6055 11.2247 87.4009 8.51194 85.7449 8.53492C84.6159 8.55077 80.0901 8.53492 80.0901 8.53492Z" fill="#1C3664"/>
<path d="M31.0095 5.56618C30.4239 4.42338 29.5461 3.49535 28.4257 2.79478C27.2634 2.07755 25.9117 1.58303 24.3357 1.28505C22.7503 1.00053 20.8986 0.861053 18.7744 0.842033L8.93849 0.849167C7.91639 0.861053 6.91489 1.66307 6.67878 2.64578L0.0462319 31.486C-0.181958 32.4727 0.456654 33.2881 1.47479 33.2881H6.18674C7.20567 33.2881 8.2151 32.4941 8.44408 31.486L10.0676 24.4873C10.2846 23.5086 11.2917 22.6986 12.313 22.6986H13.6599C19.4225 22.6931 23.892 21.5138 27.1041 19.1537C30.3114 16.7984 31.9159 13.6759 31.908 9.81482C31.9159 8.11885 31.6219 6.69947 31.0095 5.56618ZM20.8352 14.9891C19.4146 16.0281 17.4457 16.5488 14.8896 16.5488H13.7344C12.7163 16.5488 12.0737 15.7412 12.2979 14.749L13.7162 8.63557C13.9325 7.65048 14.9483 6.8334 15.9664 6.84291L17.5083 6.8334C19.3092 6.8334 20.6784 7.14169 21.6022 7.75509C22.5126 8.35185 22.9753 9.29414 22.9595 10.5614C22.9864 12.4697 22.263 13.947 20.8352 14.9891Z" fill="#1C3664"/>
<path d="M116.557 5.67156C115.97 4.52876 115.084 3.60866 113.963 2.89223C112.813 2.17739 111.447 1.6789 109.865 1.38805C108.301 1.11384 106.442 0.956924 104.323 0.952168L94.4651 0.956924C93.4501 0.974358 92.4541 1.77163 92.2196 2.75354L85.5918 31.6025C85.3502 32.5828 86.0094 33.3999 87.0061 33.3943L91.7363 33.3856C92.7394 33.3943 93.7615 32.5828 93.9984 31.6025L95.5973 24.6014C95.8215 23.6203 96.8412 22.7985 97.861 22.8127H99.2055C104.975 22.8127 109.449 21.6271 112.652 19.2671C115.848 16.8951 117.456 13.7837 117.456 9.91386C117.446 8.22423 117.158 6.80089 116.557 5.67156ZM106.387 15.1072C104.975 16.1343 102.994 16.6494 100.444 16.6494H99.2713C98.2571 16.6613 97.6019 15.841 97.8427 14.8575L99.2562 8.73461C99.467 7.76616 100.496 6.94195 101.496 6.94988L103.045 6.94195C104.853 6.94988 106.206 7.25261 107.14 7.85413C108.058 8.46278 108.503 9.40666 108.511 10.6644C108.515 12.5814 107.805 14.0563 106.387 15.1072Z" fill="#336699"/>
<path d="M45.3845 27.3887C44.7997 27.7572 44.1825 28.0711 43.5352 28.3405C42.6652 28.69 41.8364 28.8755 41.0758 28.8755C39.9079 28.8755 39.0055 28.709 38.3962 28.3564C37.7877 28.0195 37.4668 27.4355 37.4771 26.5986C37.4771 25.6357 37.7021 24.8844 38.1624 24.2979C38.6275 23.7321 39.3145 23.2764 40.1702 22.938C41.0235 22.6479 42.0733 22.4133 43.2777 22.2429C44.3521 22.1074 46.4787 21.8633 46.7496 21.8594C47.019 21.8586 47.2005 21.7072 47.0792 22.4316C47.0269 22.7462 46.4129 25.2664 46.1316 26.4107C46.0468 26.7555 45.5905 27.2556 45.3845 27.3887ZM53.7213 9.68643C51.9322 8.68787 49.1345 8.18383 45.3052 8.18383C43.4108 8.18383 41.5084 8.33441 39.5981 8.6316C38.1941 8.84479 38.0531 8.88124 37.1815 9.07065C35.3893 9.46215 35.1136 11.2548 35.1136 11.2548L34.5383 13.6228C34.2127 15.1357 35.0755 15.0731 35.4582 14.9558C36.2387 14.7197 36.6649 14.4859 38.2607 14.1229C39.7835 13.7782 41.3975 13.5198 42.6818 13.5285C44.5692 13.5285 46.0017 13.7346 46.9548 14.1324C47.9096 14.5485 48.3794 15.2586 48.3794 16.2714C48.3858 16.5123 48.3905 16.7406 48.3058 16.9379C48.2257 17.1249 48.0736 17.3032 47.6228 17.3635C44.9344 17.5259 43.0035 17.7708 40.6733 18.11C38.3779 18.4334 36.3702 18.9873 34.6905 19.7537C32.9006 20.5478 31.5632 21.6121 30.6417 22.9578C29.74 24.3098 29.2892 25.9479 29.2876 27.8785C29.2876 29.7012 29.9436 31.1896 31.2098 32.3435C32.4933 33.4831 34.1604 34.0482 36.1792 34.0482C37.4414 34.0394 38.4279 33.9467 39.1378 33.7716C39.8374 33.5933 40.602 33.3436 41.4054 32.9941C42.0107 32.7421 42.6597 32.376 43.3474 31.9195C44.0335 31.4614 44.5121 31.1357 45.1254 30.7355L45.1444 30.7727L44.9725 31.5304C44.9709 31.5375 44.9614 31.5422 44.9614 31.551L44.9685 31.5628C44.772 32.479 45.3195 33.2382 46.2251 33.3262L46.2362 33.3436H46.3154L46.3178 33.3492C46.92 33.3492 48.9824 33.346 49.9435 33.3436H50.617C50.6621 33.3436 50.6685 33.3286 50.6827 33.319C51.609 33.2025 52.4916 32.4513 52.7024 31.551L56.1434 16.6938C56.2211 16.3451 56.2845 15.9417 56.3193 15.4781C56.3653 15.0065 56.4152 14.6222 56.4017 14.344C56.4097 12.2399 55.5048 10.6858 53.7213 9.68643Z" fill="#1C3664"/>
<path d="M155.534 1.18918H151.318C151.315 1.18918 151.313 1.18998 151.311 1.18998L151.309 1.18918C150.344 1.18918 149.365 1.92859 149.091 2.8693C149.08 2.90734 149.061 2.9438 149.052 2.98342C149.052 2.98342 148.952 3.44229 148.778 4.23559L142.986 30.4914C142.853 31.085 142.763 31.4717 142.736 31.5724L142.747 31.5867C142.547 32.5044 143.098 33.2636 144.004 33.3484L144.016 33.3658H148.392C149.35 33.3658 150.323 32.6336 150.605 31.7047C150.619 31.6596 150.64 31.6176 150.651 31.5724L156.968 2.98184L156.958 2.97867C157.173 2.00071 156.543 1.18918 155.534 1.18918Z" fill="#336699"/>
<path d="M163.516 7.01014C163.373 7.04818 163.216 7.07988 163.044 7.10445C162.873 7.12822 162.719 7.14169 162.587 7.14169C162.116 7.14169 161.761 7.01489 161.518 6.76367C161.274 6.51165 161.153 6.10747 161.153 5.55192V3.11337H160.63V2.46351H161.153V1.14557H161.923V2.46351H163.516V3.11337H161.923V5.20322C161.923 5.44335 161.931 5.63196 161.94 5.76748C161.952 5.90379 161.99 6.0298 162.056 6.14709C162.115 6.25725 162.198 6.3365 162.304 6.38722C162.41 6.43874 162.571 6.4641 162.787 6.4641C162.912 6.4641 163.044 6.44508 163.182 6.40783C163.317 6.37137 163.416 6.34047 163.476 6.3159H163.516V7.01014Z" fill="#336699"/>
<path d="M171.142 7.05057H170.371V4.43846C170.371 4.24192 170.362 4.05092 170.344 3.86785C170.325 3.68399 170.287 3.53817 170.23 3.42801C170.167 3.31072 170.077 3.22116 169.959 3.16173C169.841 3.10149 169.673 3.07138 169.451 3.07138C169.234 3.07138 169.019 3.12527 168.802 3.23384C168.585 3.34163 168.37 3.47873 168.154 3.64595C168.162 3.70935 168.168 3.78226 168.173 3.86627C168.18 3.94948 168.182 4.0319 168.182 4.11432V7.05057H167.411V4.43846C167.411 4.23558 167.401 4.04379 167.383 3.86151C167.366 3.67923 167.327 3.5342 167.271 3.42484C167.207 3.30675 167.116 3.21879 166.998 3.15935C166.881 3.1007 166.712 3.07138 166.49 3.07138C166.279 3.07138 166.069 3.12369 165.856 3.2275C165.644 3.33132 165.433 3.46367 165.221 3.62534V7.05057H164.449V2.46352H165.221V2.97232C165.463 2.7726 165.703 2.61648 165.942 2.50394C166.183 2.39299 166.436 2.33593 166.708 2.33593C167.019 2.33593 167.284 2.40171 167.502 2.53247C167.719 2.66482 167.882 2.84631 167.989 3.0793C168.3 2.81619 168.585 2.62599 168.843 2.51028C169.1 2.39458 169.375 2.33593 169.668 2.33593C170.172 2.33593 170.543 2.48889 170.783 2.79321C171.022 3.09912 171.142 3.52549 171.142 4.07311V7.05057Z" fill="#336699"/>
</svg>
