<svg width="187" height="47" viewBox="0 0 187 47" fill="none" xmlns="http://www.w3.org/2000/svg">
<path d="M14.9584 33.3778C14.9943 34.1103 14.8394 34.8396 14.5091 35.4944C14.1787 36.149 13.6842 36.7069 13.0738 37.1132C11.8034 37.9649 9.97228 38.3908 7.58042 38.3908H5.66787V42.3913C5.66116 42.8593 5.69855 43.3267 5.77956 43.7876C5.84666 44.1122 6.02429 44.4034 6.28212 44.6116C6.57053 44.829 6.91369 44.9619 7.27329 44.9955C7.83354 45.0653 8.398 45.0957 8.96249 45.0863V45.9939H0V45.0863C0.408543 45.0813 0.815501 45.0344 1.21454 44.9467C1.47956 44.8891 1.72212 44.7558 1.91255 44.5627C2.09744 44.3426 2.21392 44.0732 2.24761 43.7876C2.31662 43.3608 2.34699 42.9284 2.33835 42.496V32.0234C2.3471 31.5939 2.32143 31.1643 2.26157 30.7388C2.22851 30.4614 2.1252 30.1971 1.96141 29.9708C1.80114 29.7791 1.58323 29.6444 1.34019 29.5868C0.978752 29.5125 0.612566 29.4635 0.244305 29.4401V28.5325H8.03414C10.3097 28.5325 12.0337 28.9422 13.2064 29.7613C13.781 30.1662 14.2432 30.7106 14.5496 31.3431C14.8561 31.9758 14.9968 32.676 14.9584 33.3778ZM5.66787 37.0293H7.13369C8.2678 37.1252 9.39888 36.8132 10.3236 36.1496C10.6873 35.7873 10.9665 35.3491 11.1415 34.8663C11.3164 34.3836 11.3827 33.8682 11.3357 33.3569C11.3967 32.4008 11.0867 31.458 10.4702 30.7248C10.1139 30.3897 9.69117 30.1333 9.22941 29.9721C8.76766 29.8109 8.27719 29.7486 7.78983 29.7893H6.07272C6.01896 29.7814 5.96414 29.7861 5.91245 29.8028C5.86076 29.8195 5.81357 29.8478 5.77449 29.8854C5.73542 29.9232 5.70549 29.9694 5.68702 30.0204C5.66853 30.0716 5.66199 30.1263 5.66787 30.1802V37.0293Z" fill="black"/>
<path d="M26.3426 43.8855C25.7207 44.6315 24.9395 45.2288 24.0566 45.6336C23.1737 46.0383 22.2113 46.2401 21.2402 46.2243C20.3757 46.236 19.5165 46.0867 18.7064 45.7844C17.9793 45.5116 17.3181 45.0881 16.766 44.5419C16.2139 43.9956 15.7834 43.3389 15.5025 42.6147C15.1925 41.8282 15.0384 40.9886 15.0488 40.1432C15.0386 39.2618 15.1998 38.3868 15.5235 37.5669C15.825 36.8064 16.2814 36.1169 16.8637 35.5421C17.4509 34.9691 18.1461 34.5181 18.9088 34.2156C19.7387 33.9055 20.6198 33.7562 21.5054 33.7757C22.1789 33.7355 22.8539 33.8289 23.4911 34.0507C24.1284 34.2723 24.7156 34.6179 25.2189 35.0675C25.6694 35.5466 26.0174 36.1126 26.2419 36.7307C26.4663 37.3489 26.5624 38.0065 26.5242 38.6631C26.5242 38.9075 26.4893 39.054 26.4125 39.1099C26.2107 39.1792 25.9968 39.2055 25.7843 39.1867H18.5598C18.483 39.4302 18.4521 39.6859 18.4692 39.9407C18.4065 41.1767 18.7417 42.4002 19.4254 43.4316C19.7167 43.8463 20.1065 44.1822 20.5598 44.4088C21.0129 44.6355 21.5156 44.7459 22.022 44.7302C22.6742 44.7244 23.3173 44.5766 23.9067 44.2973C24.5681 43.9819 25.1777 43.5675 25.7144 43.0685L26.3426 43.8855ZM21.9801 37.916C22.3691 37.9364 22.7588 37.9036 23.1389 37.8183C23.3133 37.7484 23.397 37.5879 23.397 37.3296C23.4234 36.7328 23.2212 36.1485 22.8317 35.6957C22.6604 35.4933 22.4463 35.3312 22.205 35.2214C21.9636 35.1116 21.7009 35.0566 21.4357 35.0604C21.1046 35.0618 20.7778 35.1348 20.4778 35.2747C20.1777 35.4145 19.9116 35.6177 19.6977 35.8704C19.1768 36.4433 18.8368 37.1574 18.7204 37.9229L21.9801 37.916Z" fill="black"/>
<path d="M32.5981 42.482C32.5915 42.9487 32.6171 43.4151 32.6749 43.8784C32.7051 44.1676 32.8191 44.4418 33.0029 44.6673C33.1915 44.8564 33.4365 44.9789 33.701 45.0164C34.1193 45.0766 34.5417 45.1024 34.9643 45.0932V46.0008H27.4677V45.0861C27.8315 45.0683 28.1933 45.0216 28.5496 44.9465C28.7897 44.9043 29.0059 44.7751 29.1569 44.5834C29.3103 44.3501 29.3994 44.0804 29.4152 43.8016C29.4152 43.4594 29.4709 42.9986 29.4709 42.4052V39.6125C29.4709 38.6769 29.4709 37.9298 29.4012 37.3713C29.384 36.9248 29.2871 36.4851 29.115 36.0727C28.9875 35.7965 28.757 35.581 28.4728 35.4722C28.118 35.3635 27.7478 35.314 27.377 35.3257V34.5786L31.8791 33.7757L32.2421 36.3869H32.3258C32.6933 35.6275 33.2423 34.9704 33.9243 34.4738C34.5314 34.0264 35.2643 33.782 36.0184 33.7757C36.5196 33.7548 37.0127 33.9077 37.4144 34.2086C37.5834 34.335 37.7202 34.4995 37.8135 34.6887C37.9069 34.878 37.9544 35.0867 37.9519 35.2977C37.9648 35.7412 37.8188 36.1745 37.5401 36.5195C37.4022 36.6857 37.2276 36.8175 37.0302 36.9047C36.8327 36.9918 36.6179 37.032 36.4023 37.0222C36.1916 37.024 35.9837 36.9763 35.795 36.8826C35.6214 36.7984 35.4576 36.6953 35.3063 36.5754C35.1667 36.4637 35.0272 36.359 34.8807 36.2613C34.753 36.1674 34.5992 36.1161 34.4408 36.1146C34.2699 36.1356 34.1068 36.198 33.9657 36.2966C33.8244 36.3952 33.7097 36.5268 33.6311 36.6801C33.341 37.1503 33.129 37.6642 33.0029 38.2021C32.8747 38.7055 32.7768 39.2161 32.7097 39.7312C32.6346 40.2935 32.5973 40.8603 32.5981 41.4277V42.482Z" fill="black"/>
<path d="M43.277 42.2517C43.277 42.8871 43.277 43.3897 43.319 43.7528C43.3246 44.0454 43.4117 44.3306 43.5702 44.5767C43.7105 44.7692 43.9166 44.9034 44.1496 44.9536C44.4988 45.0275 44.8538 45.0719 45.2105 45.0863V45.994H38.0628V45.0863C38.4266 45.0684 38.7884 45.0217 39.1448 44.9467C39.385 44.9045 39.6012 44.7753 39.752 44.5836C39.9045 44.3488 39.9978 44.0804 40.0243 43.8016C40.0726 43.3378 40.0937 42.8716 40.0871 42.4053V39.6125C40.0871 38.7469 40.0871 38.0348 40.0871 37.4552C40.08 37.059 40.0379 36.6642 39.9615 36.2753C39.9243 36.1133 39.8681 35.9563 39.7939 35.8076C39.7165 35.6893 39.6078 35.5952 39.4799 35.5353C39.3041 35.4625 39.1179 35.4178 38.9284 35.4026C38.6981 35.4026 38.4049 35.3677 38.0488 35.3677V34.5997L42.3626 33.7758L42.6348 35.7517H42.7675C43.2901 35.1084 43.9386 34.5785 44.6731 34.1948C45.3709 33.8941 46.1264 33.7511 46.8858 33.7758C47.7333 33.7437 48.5754 33.9237 49.3357 34.2994C49.9656 34.6358 50.4773 35.1573 50.8016 35.7936H50.8853C51.4186 35.1649 52.0803 34.6579 52.8259 34.3065C53.5768 33.9534 54.3971 33.7721 55.227 33.7758C56.0246 33.7587 56.8196 33.8744 57.5793 34.118C58.1786 34.2977 58.7187 34.6353 59.1428 35.0954C59.4825 35.4858 59.7221 35.9531 59.8409 36.4569C59.9953 37.2123 60.0585 37.9833 60.0294 38.7538V42.2448C60.0294 42.8661 60.0294 43.3548 60.0851 43.7179C60.1009 44.0164 60.1897 44.3064 60.3434 44.5627C60.4822 44.7613 60.6923 44.8988 60.9297 44.9467C61.2768 45.0206 61.6293 45.065 61.9838 45.0793V45.9869H54.871V45.0863C55.2307 45.0745 55.5883 45.0278 55.9389 44.9467C56.1806 44.8908 56.3953 44.7526 56.5463 44.5557C56.7023 44.3226 56.7961 44.0534 56.8185 43.7737C56.8611 43.3095 56.8798 42.8435 56.8743 42.3773V39.4589C56.8816 38.7908 56.8349 38.1229 56.7347 37.4622C56.6769 37.0017 56.5324 36.5564 56.309 36.1497C56.1299 35.8415 55.8591 35.5975 55.5341 35.4514C55.1597 35.2998 54.7583 35.2261 54.3544 35.235C53.8904 35.2178 53.4337 35.3552 53.0562 35.626C52.7079 35.8941 52.422 36.2348 52.2185 36.6244C51.8013 37.4447 51.5995 38.3576 51.6322 39.2775V42.2727C51.6322 42.894 51.6322 43.3828 51.6742 43.7457C51.6846 44.0442 51.7711 44.3349 51.9254 44.5905C52.067 44.7897 52.2792 44.9271 52.5188 44.9745C52.8775 45.0481 53.2417 45.0925 53.6077 45.1072V46.0148H46.481V45.0863C46.84 45.0685 47.1972 45.0218 47.5488 44.9467C47.7864 44.8977 48.0005 44.7698 48.1562 44.5836C48.3145 44.3517 48.4085 44.0818 48.4283 43.8016C48.4633 43.4596 48.4842 42.9988 48.4842 42.4053V39.4589C48.4916 38.7908 48.4449 38.1229 48.3446 37.4622C48.2829 37.0008 48.1336 36.5552 47.9048 36.1497C47.7179 35.8405 47.44 35.5966 47.109 35.4514C46.7159 35.2975 46.2958 35.2239 45.8736 35.235C45.4355 35.2193 45.0043 35.3468 44.6451 35.5981C44.311 35.8584 44.0392 36.1899 43.8494 36.5685C43.6419 36.9625 43.4893 37.3829 43.3957 37.8184C43.3038 38.2919 43.264 38.7742 43.277 39.2565V42.2517Z" fill="black"/>
<path d="M69.4933 38.3278V37.3714C69.5471 36.6988 69.3858 36.0265 69.0326 35.4514C68.8588 35.2451 68.6383 35.0831 68.3895 34.9788C68.1407 34.8743 67.8708 34.8305 67.6017 34.851C67.4208 34.8382 67.2393 34.8632 67.0687 34.9245C66.898 34.9858 66.7421 35.0821 66.6106 35.207C66.3253 35.5497 66.1116 35.9463 65.9824 36.373C65.8738 36.7163 65.6764 37.0245 65.4101 37.2666C65.116 37.4898 64.7524 37.6011 64.384 37.5809C64.2049 37.5929 64.0254 37.5647 63.8586 37.4982C63.692 37.4317 63.5423 37.3288 63.4207 37.1969C63.1748 36.8892 63.0527 36.5008 63.0787 36.1077C63.0894 35.7374 63.2065 35.3781 63.4156 35.0725C63.6248 34.7666 63.9171 34.5275 64.2584 34.3833C65.3829 33.9028 66.605 33.6947 67.8252 33.7758C69.505 33.7758 70.7056 34.083 71.4268 34.6974C72.1249 35.3048 72.5088 36.331 72.5088 37.7693V42.7404C72.5088 44.025 72.7601 44.6673 73.2696 44.6673C73.5591 44.6667 73.8389 44.5627 74.0584 44.3741L74.3935 45.0304C74.1741 45.4287 73.831 45.745 73.4162 45.9311C72.9502 46.1538 72.439 46.2663 71.9225 46.2592C71.6286 46.279 71.3342 46.2322 71.0611 46.1222C70.7879 46.0121 70.5431 45.8417 70.345 45.6239C69.9582 45.1087 69.7676 44.4725 69.8075 43.8296H69.6959C69.3163 44.5716 68.7349 45.1914 68.0187 45.6175C67.3024 46.0435 66.4804 46.2587 65.6473 46.2382C64.812 46.2778 63.9945 45.9869 63.3719 45.4284C63.0888 45.16 62.8665 44.8344 62.7197 44.4732C62.5729 44.1119 62.5048 43.7234 62.5202 43.3338C62.532 42.9782 62.6152 42.6286 62.7651 42.3059C62.9151 41.9832 63.1286 41.6939 63.3927 41.4557C64.249 40.6983 65.2383 40.1065 66.3104 39.7102L69.4933 38.3278ZM69.4933 39.5288C68.4886 39.956 67.5336 40.492 66.6455 41.1276C66.3783 41.2923 66.1529 41.5167 65.987 41.7832C65.821 42.0497 65.7191 42.351 65.6893 42.6636C65.6688 43.0445 65.7992 43.4182 66.0521 43.7038C66.1655 43.8293 66.3047 43.9286 66.4602 43.995C66.6157 44.0612 66.7837 44.093 66.9526 44.0878C67.2989 44.0901 67.6424 44.0262 67.9648 43.8993C68.2619 43.7774 68.5359 43.6049 68.7745 43.3897C68.9978 43.166 69.1744 42.9003 69.2942 42.6079C69.4141 42.3154 69.4746 42.0022 69.4724 41.6861L69.4933 39.5288Z" fill="black"/>
<path d="M74.687 35.2141V34.1948C75.5156 33.9725 76.2868 33.575 76.9485 33.0288C77.5457 32.5405 78.0233 31.922 78.3446 31.2205H79.4892V33.9644H82.0789V35.2141H79.4335V42.154C79.389 42.834 79.4938 43.5155 79.7406 44.1508C79.832 44.34 79.9777 44.4976 80.1594 44.6034C80.3409 44.7091 80.55 44.7581 80.7597 44.7441C81.0368 44.7503 81.3099 44.6765 81.5462 44.5317C81.7827 44.3868 81.9723 44.177 82.0929 43.9273L82.5605 44.5836C82.1417 45.6588 81.1529 46.1964 79.594 46.1964C78.7297 46.2557 77.8721 46.0084 77.1718 45.4983C76.8817 45.2453 76.6531 44.9297 76.503 44.5753C76.3532 44.2208 76.2859 43.837 76.3063 43.4525V35.2141H74.687Z" fill="black"/>
<path d="M89.8755 38.328V37.3714C89.9292 36.6988 89.768 36.0265 89.4148 35.4514C89.2445 35.2502 89.0296 35.091 88.7875 34.9869C88.5452 34.8826 88.2821 34.8362 88.0187 34.851C87.8378 34.8382 87.6563 34.8633 87.4857 34.9247C87.315 34.986 87.1591 35.0821 87.0276 35.2072C86.7423 35.5497 86.5286 35.9463 86.3994 36.373C86.2898 36.7137 86.0923 37.0195 85.8271 37.2597C85.533 37.4827 85.1694 37.5941 84.801 37.574C84.621 37.585 84.4407 37.5565 84.273 37.4901C84.1053 37.4237 83.9544 37.3211 83.8308 37.19C83.5903 36.8797 83.4711 36.4925 83.4957 36.1008C83.5066 35.7305 83.6235 35.3712 83.8326 35.0654C84.0418 34.7597 84.3341 34.5206 84.6754 34.3762C85.7975 33.8858 87.0197 33.6681 88.2422 33.7409C89.9266 33.7409 91.1273 34.0481 91.8438 34.6625C92.5419 35.27 92.9258 36.2962 92.9258 37.7345V42.7055C92.9258 43.9901 93.1771 44.6324 93.6866 44.6324C93.9761 44.6318 94.2558 44.5278 94.4754 44.3392L94.8104 44.9955C94.5875 45.3911 94.2456 45.7062 93.8332 45.8961C93.3672 46.119 92.856 46.2313 92.3395 46.2243C92.0456 46.2442 91.7512 46.1973 91.478 46.0872C91.2049 45.9772 90.9601 45.8069 90.762 45.5889C90.3752 45.0739 90.1846 44.4377 90.2245 43.7947H90.1129C89.7333 44.5367 89.1519 45.1564 88.4357 45.5826C87.7194 46.0087 86.8974 46.2239 86.0643 46.2033C85.646 46.2266 85.2271 46.167 84.8318 46.0282C84.4366 45.8892 84.0726 45.6735 83.7609 45.3935C83.478 45.1252 83.2557 44.7996 83.1087 44.4383C82.9619 44.077 82.8939 43.6886 82.9094 43.2989C82.9214 42.9505 83.0029 42.608 83.1493 42.2914C83.2954 41.9749 83.5034 41.6907 83.7609 41.4557C84.6219 40.71 85.6136 40.1302 86.6855 39.7452L89.8755 38.328ZM89.8755 39.5288C88.8706 39.956 87.9155 40.4922 87.0276 41.1276C86.7604 41.2923 86.535 41.5167 86.369 41.7832C86.2032 42.0497 86.1012 42.351 86.0713 42.6636C86.051 43.0445 86.1814 43.4182 86.4343 43.7039C86.5476 43.8294 86.6867 43.9287 86.8423 43.995C86.9977 44.0614 87.1658 44.093 87.3348 44.0879C87.6809 44.0895 88.0244 44.0256 88.3469 43.8993C88.644 43.7774 88.918 43.6049 89.1565 43.3897C89.3798 43.166 89.5565 42.9003 89.6763 42.6079C89.7961 42.3156 89.8567 42.0022 89.8546 41.6861L89.8755 39.5288Z" fill="black"/>
<path d="M95.3418 45.9938V45.1352C95.8105 45.1317 96.2778 45.085 96.7378 44.9954C97.0397 44.9504 97.3215 44.8168 97.5476 44.6114C97.7497 44.3998 97.8834 44.1322 97.9315 43.8434C98.0093 43.4152 98.0444 42.9802 98.0362 42.5449V31.9675C98.0431 31.54 98.0152 31.1127 97.9524 30.6899C97.9224 30.4072 97.8135 30.1386 97.6383 29.9149C97.4561 29.7111 97.2099 29.5756 96.9402 29.531C96.554 29.4499 96.1618 29.4009 95.7676 29.3843V28.5186H102.496C104.148 28.4154 105.795 28.786 107.243 29.5867C107.769 29.9037 108.203 30.3541 108.499 30.8921C108.796 31.4304 108.945 32.0374 108.932 32.6518C108.949 33.1021 108.874 33.5511 108.714 33.9721C108.553 34.3931 108.309 34.7776 107.997 35.1023C107.152 35.8586 106.137 36.3977 105.037 36.6733V36.7641C105.505 36.8058 105.91 36.8618 106.252 36.9177C106.563 36.9711 106.871 37.0435 107.173 37.1341C107.433 37.214 107.685 37.3167 107.927 37.4413C108.167 37.5662 108.4 37.7038 108.625 37.8531C109.235 38.2357 109.737 38.767 110.085 39.3972C110.433 40.0274 110.615 40.7358 110.614 41.4557C110.619 42.2518 110.388 43.0315 109.951 43.6969C109.494 44.3981 108.851 44.9587 108.095 45.3166C107.844 45.449 107.583 45.5588 107.313 45.6448C107.002 45.7382 106.685 45.806 106.363 45.8473C106.008 45.9032 105.589 45.9381 105.114 45.966C104.639 45.9938 104.088 45.966 103.439 45.966L95.3418 45.9938ZM101.666 36.2194C102.127 36.2194 102.517 36.2194 102.832 36.2194C103.103 36.2087 103.373 36.183 103.641 36.1426C103.847 36.1116 104.048 36.0577 104.242 35.9821C104.425 35.9068 104.6 35.8131 104.765 35.7027C105.204 35.4427 105.56 35.0623 105.791 34.6066C106.015 34.0847 106.12 33.5194 106.098 32.9519C106.143 32.4853 106.088 32.0145 105.937 31.5704C105.787 31.1264 105.545 30.7192 105.226 30.3757C104.451 29.7872 103.487 29.5061 102.517 29.5867H100.786C100.734 29.5784 100.68 29.5826 100.63 29.5988C100.58 29.6151 100.534 29.6432 100.496 29.6807C100.459 29.7182 100.431 29.764 100.414 29.8143C100.398 29.8649 100.394 29.9185 100.402 29.9707V36.2543L101.666 36.2194ZM103.509 45.0025C106.226 45.0025 107.583 43.8388 107.578 41.5117C107.634 40.7716 107.464 40.032 107.09 39.3911C106.716 38.7501 106.156 38.2382 105.484 37.923C105.247 37.8159 105.014 37.7251 104.786 37.6506C104.532 37.5659 104.27 37.5073 104.004 37.4762C103.704 37.4342 103.348 37.4133 102.936 37.3923C102.524 37.3714 102.015 37.3923 101.415 37.3923H100.402V42.4332C100.364 42.7959 100.407 43.1624 100.528 43.5066C100.649 43.8507 100.844 44.1637 101.1 44.423C101.812 44.8897 102.661 45.1016 103.509 45.0234V45.0025Z" fill="black"/>
<path d="M119.032 38.2999V37.3714C119.032 35.5282 118.25 34.5786 116.687 34.5786C116.469 34.5774 116.251 34.6007 116.038 34.6485C115.873 34.6894 115.72 34.7683 115.591 34.8789C115.452 35.0064 115.34 35.1608 115.263 35.3326C115.15 35.5571 115.057 35.7907 114.984 36.0309C114.885 36.3533 114.718 36.6508 114.495 36.9036C114.3 37.0652 114.049 37.1431 113.797 37.1201C113.643 37.1413 113.487 37.1264 113.34 37.0766C113.193 37.0267 113.059 36.9431 112.95 36.8327C112.841 36.7221 112.759 36.5877 112.711 36.4401C112.663 36.2923 112.65 36.1355 112.673 35.9821C112.679 35.6196 112.791 35.2666 112.994 34.9666C113.197 34.6665 113.484 34.4322 113.818 34.2925C114.843 33.842 115.959 33.6365 117.078 33.6919C118.579 33.6919 119.646 33.9642 120.275 34.4949C120.629 34.8573 120.9 35.2938 121.066 35.7729C121.233 36.2521 121.292 36.7622 121.238 37.2666V42.3633C121.238 44.0878 121.573 44.9536 122.25 44.9536C122.455 44.953 122.659 44.9272 122.857 44.8768C123.069 44.8042 123.245 44.6512 123.346 44.4509L123.667 44.9954C123.44 45.3883 123.093 45.697 122.676 45.8752C122.206 46.1028 121.69 46.2222 121.168 46.2242C120.889 46.2457 120.61 46.199 120.353 46.0882C120.097 45.9776 119.871 45.8062 119.695 45.5889C119.338 45.0616 119.166 44.4303 119.207 43.7945H119.095C118.723 44.5157 118.163 45.1235 117.476 45.554C116.791 45.9873 115.996 46.2128 115.186 46.2033C114.381 46.2564 113.584 46.0076 112.952 45.5052C112.684 45.2577 112.472 44.9547 112.332 44.6171C112.192 44.2795 112.127 43.9153 112.143 43.5502C112.141 43.1941 112.207 42.841 112.338 42.51C112.479 42.1541 112.687 41.8291 112.952 41.5534C113.291 41.2101 113.671 40.91 114.083 40.6598C114.63 40.3178 115.202 40.0168 115.793 39.7591L119.032 38.2999ZM119.032 39.2774C118.29 39.5603 117.565 39.8867 116.861 40.2549C116.362 40.5212 115.894 40.8421 115.465 41.2113C115.134 41.4675 114.859 41.7881 114.656 42.1538C114.5 42.4562 114.419 42.7912 114.418 43.1313C114.411 43.3583 114.452 43.5843 114.537 43.7947C114.622 44.0051 114.751 44.1953 114.914 44.3532C115.088 44.5169 115.293 44.6441 115.518 44.7269C115.742 44.8095 115.98 44.8464 116.219 44.8349C116.603 44.8364 116.979 44.7326 117.308 44.5346C117.656 44.3311 117.958 44.0577 118.195 43.7317C118.464 43.3689 118.669 42.9628 118.802 42.5309C118.957 42.0578 119.035 41.5626 119.032 41.0646V39.2774Z" fill="black"/>
<path d="M127.939 42.4332C127.939 43.057 127.953 43.5457 127.981 43.8995C127.994 44.1868 128.075 44.4668 128.218 44.7163C128.352 44.9084 128.554 45.041 128.784 45.0863C129.119 45.1631 129.46 45.2098 129.803 45.2259V45.9939H123.912V45.2259C124.25 45.2084 124.586 45.1617 124.917 45.0863C125.145 45.0375 125.348 44.9087 125.489 44.7232C125.639 44.4931 125.727 44.2289 125.747 43.9552C125.747 43.6202 125.803 43.1663 125.803 42.5939V39.5707C125.84 38.4727 125.793 37.3734 125.664 36.2823C125.63 36.1126 125.574 35.9481 125.496 35.7936C125.428 35.6673 125.324 35.565 125.196 35.5004C125.033 35.4256 124.858 35.3784 124.679 35.3607C124.47 35.3607 124.198 35.3607 123.87 35.3607V34.6625L127.464 33.7759L127.737 36.024H127.827C128.365 35.3227 129.049 34.7462 129.831 34.3344C130.6 33.9363 131.456 33.7324 132.323 33.7409C132.969 33.7318 133.612 33.848 134.214 34.0831C134.727 34.2664 135.178 34.5877 135.52 35.0116C135.798 35.4145 135.982 35.8751 136.057 36.3591C136.181 37.1135 136.235 37.8778 136.217 38.6422V42.4332C136.217 43.0547 136.217 43.5434 136.273 43.8995C136.289 44.1862 136.371 44.4656 136.511 44.7163C136.572 44.8126 136.653 44.8952 136.748 44.9588C136.843 45.0226 136.95 45.0659 137.062 45.0863C137.383 45.1616 137.71 45.2084 138.039 45.2259V45.9939H132.211V45.2259C132.55 45.2226 132.887 45.1805 133.216 45.1003C133.441 45.0448 133.639 44.9112 133.774 44.7232C133.922 44.4877 134.009 44.2189 134.026 43.9414C134.061 43.6062 134.082 43.1523 134.082 42.5939V39.5987C134.088 38.8703 134.044 38.1424 133.949 37.4204C133.884 36.9331 133.735 36.4607 133.509 36.024C133.332 35.6845 133.05 35.4107 132.706 35.242C132.332 35.0729 131.924 34.9916 131.513 35.0047C130.858 34.9984 130.215 35.1827 129.663 35.5352C128.972 35.9896 128.444 36.6524 128.155 37.4273C128.096 37.5827 128.053 37.7443 128.03 37.9091C128.03 38.0907 127.974 38.2931 127.96 38.5304C127.946 38.7679 127.96 39.0611 127.96 39.4311L127.939 42.4332Z" fill="black"/>
<path d="M145.843 45.2049C146.186 45.2183 146.53 45.1948 146.869 45.135C147.057 45.0862 147.148 45.0304 147.148 44.9536C147.074 44.7135 146.953 44.4905 146.792 44.2973C146.569 43.9761 146.276 43.599 145.913 43.1593L143.525 40.2549L142.695 41.0507V42.3913C142.69 42.8579 142.716 43.3242 142.771 43.7877C142.806 44.0852 142.906 44.3713 143.065 44.6254C143.221 44.835 143.446 44.9833 143.7 45.0442C144.056 45.1332 144.422 45.18 144.789 45.184V45.9938H138.402V45.2049C138.769 45.2005 139.134 45.1536 139.491 45.0653C139.746 45.0052 139.974 44.8628 140.14 44.6602C140.317 44.4285 140.431 44.154 140.468 43.8645C140.537 43.4281 140.568 42.9865 140.559 42.5449V33.0357C140.559 31.8907 140.559 31.0179 140.524 30.4246C140.543 30.0109 140.462 29.5988 140.286 29.2236C140.208 29.1105 140.104 29.0174 139.982 28.952C139.861 28.8864 139.726 28.8503 139.589 28.8466C139.169 28.8056 138.747 28.787 138.325 28.7907V28.0227L142.667 27.1571V39.6194L144.761 37.525L146.269 36.0169C146.597 35.6887 146.764 35.4443 146.764 35.2769C146.764 35.1093 146.604 34.9766 146.289 34.8789C145.85 34.766 145.396 34.7166 144.942 34.7322V33.9642H150.792V34.7602C150.542 34.7565 150.292 34.7728 150.045 34.809C149.839 34.8375 149.638 34.8987 149.451 34.9906C149.243 35.0957 149.044 35.2196 148.858 35.3606C148.642 35.5211 148.404 35.7237 148.16 35.9681L144.921 38.8725L149.375 43.9552C149.552 44.1761 149.746 44.3838 149.954 44.5765C150.107 44.726 150.281 44.853 150.471 44.9536C150.646 45.0456 150.834 45.1115 151.029 45.149C151.26 45.1863 151.493 45.2051 151.727 45.2049V45.9938H145.808L145.843 45.2049Z" fill="black"/>
<path d="M172.262 0.38208L173.302 1.37325L165.541 4.42358L163.844 3.06943L172.262 0.38208Z" fill="#DC505E"/>
<path d="M165.541 4.45228L165.854 25.6838C165.854 25.6838 166.273 25.6838 166.314 25.4534C166.357 25.223 173.295 1.40126 173.295 1.40126L165.541 4.45228Z" fill="#B22B37"/>
<path d="M165.541 4.42453L163.844 3.07007L162.805 4.42453L165.687 25.6561H165.854L165.541 4.42453Z" fill="#D81936"/>
<path d="M162.804 4.42354L156.899 1.37321L157.36 0.598419L163.844 3.06939L162.804 4.42354Z" fill="#AF2C35"/>
<path d="M156.899 1.37317C156.899 1.37317 165.101 24.9645 165.157 25.174C165.2 25.2908 165.27 25.3954 165.364 25.4792C165.456 25.5631 165.567 25.6236 165.686 25.6557L162.804 4.45212L156.899 1.37317Z" fill="#762624"/>
<path d="M163.844 3.06943L172.263 0.38208L157.361 0.598464L163.844 3.06943Z" fill="#D81936"/>
<path d="M157.361 11.2947L153.151 16.7964L164.529 37.7626L164.919 37.239L157.361 11.2947Z" fill="#007592"/>
<path d="M153.151 16.7962L151.183 15.8538V17.5922L164.529 37.7625L153.151 16.7962Z" fill="#0097B9"/>
<path d="M151.183 15.8537L155.817 10.4847L157.361 11.2946L153.151 16.7962L151.183 15.8537Z" fill="#2FB8E7"/>
<path d="M151.182 17.5917L145.668 16.5866L145.856 15.5814L151.182 15.8537V17.5917Z" fill="#007592"/>
<path d="M145.668 16.5869L163.81 37.7625H164.529L151.182 17.5922L145.668 16.5869Z" fill="#005874"/>
<path d="M155.817 10.4847L145.857 15.5814L151.183 15.8537L155.817 10.4847Z" fill="#0097B9"/>
<path d="M178.202 15.5814L178.782 17.5922L166.468 46.1615L176.43 16.4333L178.202 15.5814Z" fill="#80B13A"/>
<path d="M178.782 17.5916L186.614 17.0122V15.351L178.203 15.5813L178.782 17.5916Z" fill="#A5C550"/>
<path d="M176.43 16.4331L173.735 10.6312L174.838 9.99586L178.202 15.5812L176.43 16.4331Z" fill="#5E8B28"/>
<path d="M186.613 15.3508L174.837 9.99586L178.202 15.5812L186.613 15.3508Z" fill="#80B13A"/>
<path d="M186.614 17.0126L167.342 45.9939L166.468 46.1615L178.782 17.5922L186.614 17.0126Z" fill="#6E9123"/>
<path d="M176.43 16.4331L173.735 10.6313L166.037 45.4353L166.47 46.1615L176.43 16.4331Z" fill="#3F7937"/>
</svg>
