<svg width="150" height="56" viewBox="0 0 150 56" fill="none" xmlns="http://www.w3.org/2000/svg">
<path d="M143.855 34.2875V29.5214V19.9992H129.57H120.045V15.2331H143.855V5.70586H120.045H105.76V15.2331V19.9992V29.5214H120.045H129.57V34.2875H105.76V43.8147H129.57H143.855V34.2875Z" fill="#010101"/>
<path d="M101 5.70586H91.4746V43.8097H101V5.70586Z" fill="#010101"/>
<path d="M48.6199 5.70586V15.2331H77.1898V19.9992H58.1399H48.6199V29.5214V43.8147H58.1399V29.6664L72.4298 43.8147H86.7148L71.8098 29.5214H77.1898H86.7148V19.9992V15.2331V5.70586H77.1898H48.6199Z" fill="#010101"/>
<path d="M20.0447 29.5214H29.5447V20.0192H20.0447V29.5214ZM22.4297 22.3797H27.1897V27.1408H22.4297V22.3797Z" fill="#010101"/>
<path d="M15.2852 5.70586H6.95025C6.63527 5.70825 6.33375 5.83391 6.11026 6.05594C5.99907 6.16677 5.9109 6.2985 5.85083 6.44356C5.79076 6.58862 5.75998 6.74413 5.76026 6.90113V42.6194C5.75998 42.7764 5.79076 42.9319 5.85083 43.077C5.9109 43.222 5.99907 43.3538 6.11026 43.4646C6.33425 43.6853 6.63587 43.8092 6.95025 43.8097H29.5702V34.3075H15.2852V5.70586Z" fill="#010101"/>
<path d="M42.6646 5.70586H20.0447V15.2331H34.3347V29.5214H43.8346V6.90113C43.8376 6.58646 43.7173 6.28312 43.4996 6.05594C43.2765 5.83644 42.9776 5.7111 42.6646 5.70586Z" fill="#010101"/>
<path d="M43.8597 34.2875H34.3347V55.7224H43.8597V34.2875Z" fill="#010101"/>
<path d="M19.05 0.349609H1.19C0.874797 0.350926 0.57288 0.476752 0.349997 0.699688C0.127113 0.922623 0.0013161 1.22461 0 1.53989L0 19.404H2.38V3.90043C2.38652 3.58864 2.51461 3.29175 2.73693 3.07311C2.95926 2.85447 3.25821 2.7314 3.57 2.73016H19.07L19.05 0.349609Z" fill="#010101"/>
<path d="M147.62 31.3068V46.8104C147.619 47.1256 147.493 47.4276 147.27 47.6506C147.047 47.8735 146.745 47.9993 146.43 48.0006H130.93V50.3612H148.79C148.948 50.3632 149.105 50.3339 149.251 50.275C149.397 50.2162 149.531 50.1289 149.643 50.0182C149.756 49.9076 149.845 49.7757 149.906 49.6303C149.968 49.4849 150 49.3287 150 49.1709V31.3068H147.62Z" fill="#010101"/>
</svg>
