<svg width="141" height="47" viewBox="0 0 141 47" fill="none" xmlns="http://www.w3.org/2000/svg">
<path d="M60.9263 45.5635H49.4992L56.641 1.66214H68.0693L60.9263 45.5635ZM39.886 1.66214L28.9919 31.8578L27.7027 25.3555L27.7039 25.3579L23.8589 5.61495C23.8589 5.61495 23.3939 1.66214 18.4382 1.66214H0.428128L0.216797 2.40549C0.216797 2.40549 5.72432 3.55164 12.1699 7.42342L22.0978 45.5646H34.0039L52.1842 1.66214H39.886ZM129.766 45.5635H140.259L131.11 1.66097H121.925C117.683 1.66097 116.65 4.93266 116.65 4.93266L99.6069 45.5635H111.519L113.901 39.0424H128.428L129.766 45.5635ZM117.192 30.0341L123.196 13.6051L126.574 30.0341H117.192ZM100.5 12.2194L102.131 2.79185C102.131 2.79185 97.0991 0.877686 91.8534 0.877686C86.1827 0.877686 72.7162 3.3567 72.7162 15.4113C72.7162 26.753 88.5214 26.8939 88.5214 32.8513C88.5214 38.8087 74.3447 37.7412 69.666 33.9845L67.9672 43.8419C67.9672 43.8419 73.0696 46.3209 80.8654 46.3209C88.6635 46.3209 100.428 42.2824 100.428 31.2906C100.428 19.8761 84.4803 18.8133 84.4803 13.8506C84.4815 8.88665 95.6104 9.52431 100.5 12.2194Z" fill="#2566AF"/>
<path d="M27.7039 25.3567L23.8589 5.61379C23.8589 5.61379 23.3939 1.66098 18.4382 1.66098H0.428128L0.216797 2.40433C0.216797 2.40433 8.87315 4.19871 17.1761 10.9218C25.1151 17.3477 27.7039 25.3567 27.7039 25.3567Z" fill="#E6A540"/>
</svg>
